<svg xmlns="http://www.w3.org/2000/svg" xmlns:xlink="http://www.w3.org/1999/xlink" xmlns:lucid="lucid" width="1415.92" height="1460"><g transform="translate(0 1440)" lucid:page-tab-id="0_0"><path d="M172-1301.04h1060V0H172z" fill-opacity="0"/><path d="M192.2-1301.04h20.18m10.1 0h20.2m10.08 0h20.2m10.1 0h20.18m10.1 0h20.18m10.1 0h20.2m10.08 0h20.2m10.1 0h20.18m10.1 0h20.2m10.08 0h20.2m10.1 0h20.18m10.1 0h20.18m10.1 0h20.2m10.08 0h20.2m10.1 0h20.18m10.1 0h20.2m10.08 0h20.2m10.1 0h20.18m10.1 0h20.18m10.1 0h20.2m10.08 0h20.2m10.1 0h20.18m10.1 0h20.2m10.08 0h20.2m10.1 0h20.18m10.1 0h20.18m10.1 0h20.2m10.08 0h20.2m10.1 0h20.18m10.1 0h20.2m10.08 0h20.2m10.1 0h20.18m10.1 0h20.18m10.1 0h20.2m10.08 0h10.1v10.08m0 10.1v20.16m0 10.08v20.18m0 10.08v20.17m0 10.1v20.17m0 10.1v20.16m0 10.08v20.18m0 10.1v20.16m0 10.1v20.16m0 10.08v20.17m0 10.1v20.16m0 10.1v20.17m0 10.08v20.17m0 10.1v20.16m0 10.1v20.16m0 10.08v20.17m0 10.08v20.17m0 10.1v20.16m0 10.1v20.16m0 10.1v20.16m0 10.1v20.16m0 10.08v20.18m0 10.08v20.17m0 10.08v20.17m0 10.08v20.18m0 10.1v20.16m0 10.1v20.16m0 10.1v20.16m0 10.08v20.17m0 10.1v20.16m0 10.08v20.17m0 10.08V-353m0 10.1v20.16m0 10.1v20.16m0 10.08v20.17m0 10.1v20.16m0 10.1v20.16m0 10.07v20.17m0 10.1v20.16m0 10.1v20.16m0 10.08v20.18m0 10.08v20.17m0 10.1v20.16m0 10.08V0h-10.1m-10.1 0h-20.18m-10.1 0h-20.2m-10.08 0h-20.2m-10.1 0h-20.18m-10.1 0h-20.18m-10.1 0h-20.2m-10.08 0h-20.2m-10.1 0h-20.18m-10.1 0h-20.2m-10.08 0h-20.2m-10.1 0h-20.18m-10.1 0H858.5m-10.1 0h-20.2M818.1 0h-20.2m-10.1 0h-20.18m-10.1 0h-20.2m-10.08 0h-20.2m-10.1 0h-20.18m-10.1 0H646.5m-10.1 0h-20.2M606.1 0h-20.2m-10.1 0h-20.18m-10.1 0h-20.2m-10.08 0h-20.2m-10.1 0h-20.18m-10.1 0H434.5m-10.1 0h-20.2M394.1 0h-20.2m-10.1 0h-20.18m-10.1 0h-20.2m-10.08 0h-20.2m-10.1 0h-20.18m-10.1 0H222.5m-10.1 0h-20.2M182.1 0H172v-10.1m0-10.07v-20.17m0-10.1V-70.6m0-10.08v-20.18m0-10.08v-20.17m0-10.1v-20.17m0-10.1v-20.16m0-10.08v-20.18m0-10.1v-20.16m0-10.1v-20.16m0-10.08v-20.17m0-10.1v-20.16m0-10.1v-20.17m0-10.08v-20.17m0-10.1v-20.16m0-10.1v-20.16m0-10.08v-20.17m0-10.08v-20.17m0-10.1v-20.16m0-10.1v-20.17m0-10.08v-20.17m0-10.1v-20.16m0-10.08v-20.18m0-10.08V-706m0-10.08v-20.17m0-10.1v-20.16m0-10.1v-20.16m0-10.1V-827m0-10.1v-20.16m0-10.08v-20.17m0-10.1v-20.16m0-10.08v-20.17m0-10.08v-20.17m0-10.1v-20.16m0-10.1v-20.16m0-10.08v-20.17m0-10.1v-20.16m0-10.1v-20.16m0-10.07v-20.17m0-10.1v-20.16m0-10.1v-20.16m0-10.08v-20.18m0-10.08v-20.17m0-10.1v-10.07h10.1" stroke="#000" fill="none"/><path d="M560-1280h160v99.13H560z" stroke="#000" stroke-width="2" fill="#fff"/><use xlink:href="#a" transform="matrix(1,0,0,1,565,-1275) translate(20.624999999999993 36.9)"/><use xlink:href="#b" transform="matrix(1,0,0,1,565,-1275) translate(117.375 36.9)"/><use xlink:href="#c" transform="matrix(1,0,0,1,565,-1275) translate(47.5 58.5)"/><path d="M1284-550.96h100v99.13h-100z" stroke="#000" stroke-width="2" fill="#fff"/><use xlink:href="#d" transform="matrix(1,0,0,1,1289,-545.9565217391304) translate(9.549999999999997 48.15)"/><path d="M20-700h100v99.13H20z" stroke="#000" stroke-width="2" fill="#fff"/><use xlink:href="#e" transform="matrix(1,0,0,1,25,-695) translate(28 48.15)"/><path d="M560-980h160v99.13H560z" stroke="#000" stroke-width="2" fill="#fff"/><use xlink:href="#f" transform="matrix(1,0,0,1,565,-975) translate(31.049999999999997 48.15)"/><path d="M560-620h160v99.13H560z" stroke="#000" stroke-width="2" fill="#fff"/><use xlink:href="#g" transform="matrix(1,0,0,1,565,-615) translate(25.049999999999997 36.9)"/><use xlink:href="#h" transform="matrix(1,0,0,1,565,-615) translate(54 58.5)"/><path d="M560-320h160v99.13H560z" stroke="#000" stroke-width="2" fill="#fff"/><use xlink:href="#i" transform="matrix(1,0,0,1,565,-315) translate(33.574999999999996 36.9)"/><use xlink:href="#j" transform="matrix(1,0,0,1,565,-315) translate(39.574999999999996 58.5)"/><path d="M980-719.13h160V-620H980z" stroke="#000" stroke-width="2" fill="#fff"/><use xlink:href="#k" transform="matrix(1,0,0,1,985,-714.1304347826087) translate(43.55 48.15)"/><path d="M984.5-928.64l5.77 39.26 4.85 46.48 3.47 55.58 1.34 66.67-1 .02-1.35-66.65-3.47-55.54-4.86-46.44-5.77-39.2-6.05-31.84h1.02zM738.54-1230.4l10.9.92 10.3 1.3 9.84 1.66 9.4 2 9.02 2.32 8.68 2.62 8.4 2.92 8.14 3.23 7.92 3.52 7.73 3.83 7.55 4.15 7.42 4.5 7.3 4.85 7.2 5.24 7.13 5.65 7.07 6.1 7.03 6.6 7 7.15 7 7.77 6.98 8.45 7 9.22 7.03 10.12 7.07 11.12 7.1 12.28 7.1 13.64 7.16 15.2 7.16 17.05 7.13 19.23 7.1 21.85 3.44 12.4h-1.03l-3.38-12.1-7.07-21.8-7.14-19.2-7.15-17-7.12-15.18-7.1-13.6-7.07-12.24-7.02-11.1-7-10.07-6.98-9.2-6.96-8.4-6.97-7.74-6.97-7.12-7-6.58-7.03-6.07-7.1-5.64-7.17-5.2-7.27-4.84-7.38-4.47-7.53-4.14-7.7-3.8-7.87-3.5-8.1-3.22-8.36-2.9-8.65-2.62-8.98-2.3-9.36-2-9.8-1.65-10.27-1.28-10.84-.9-1.15-.06.05-1z"/><path d="M999.95-720.13h-1v-.5l1-.03zM736.74-1225.32l-14.12-5.07 14.4-4.2z"/><path d="M737.22-1224.62l-16.22-5.8 16.54-4.84zm-13-5.72l12.04 4.3.24-7.88z"/><use xlink:href="#l" transform="matrix(1,0,0,1,933.9790472798612,-1003.4981118311392) translate(0 14.4)"/><use xlink:href="#m" transform="matrix(1,0,0,1,933.9790472798612,-1003.4981118311392) translate(43 14.4)"/><use xlink:href="#n" transform="matrix(1,0,0,1,933.9790472798612,-1003.4981118311392) translate(0 36)"/><use xlink:href="#o" transform="matrix(1,0,0,1,933.9790472798612,-1003.4981118311392) translate(48.95 36)"/><path d="M878.02-747.26l7.9 13.05 6.44 9.72 5.6 7.73 5.04 6.36 4.62 5.37 4.3 4.58 4.07 3.98 3.85 3.5 3.72 3.06 3.58 2.7 3.5 2.44 3.4 2.17 3.36 1.95 3.33 1.73 3.3 1.55 3.28 1.4 3.3 1.2 3.32 1.1 3.35.92 3.4.8 2.13.4-.2 1-2.14-.42-3.44-.8-3.4-.96-3.35-1.1-3.33-1.22-3.32-1.4-3.33-1.57-3.37-1.76-3.4-1.96-3.44-2.2-3.54-2.44-3.62-2.75-3.74-3.1-3.9-3.5-4.1-4.02-4.32-4.62-4.65-5.4-5.06-6.38-5.63-7.76-6.48-9.77-7.9-13.1-10.8-20.97h1.13zm-153.07-183.6l3.8.25 3.7.37 3.6.53 3.5.67 3.43.8 3.4.96 3.35 1.1 3.33 1.22 3.32 1.4 3.33 1.57 3.37 1.76 3.4 1.96 3.44 2.2 3.54 2.44 3.62 2.75 3.74 3.1 3.9 3.5 4.1 4.02 4.32 4.62 4.65 5.4 5.06 6.38 5.63 7.76 6.48 9.77 7.9 13.1 11.33 20.7h-1.14l-11.05-20.2-7.9-13.06-6.44-9.72-5.6-7.73-5.04-6.36-4.62-5.37-4.3-4.58-4.07-3.98-3.85-3.5-3.72-3.06-3.58-2.7-3.5-2.44-3.4-2.17-3.36-1.95-3.33-1.73-3.3-1.55-3.28-1.4-3.3-1.2-3.32-1.1-3.35-.92-3.4-.8-3.46-.66-3.54-.53-3.65-.4-3.77-.22-3.4-.07v-1z"/><path d="M721.53-930.92l-.02 1h-.5v-1zM977.4-669.7l-14.64 3.3.84-9.23z"/><path d="M979-669.57l-16.8 3.82.97-10.6zm-15.68 2.54l12.46-2.83-11.74-5.03z"/><use xlink:href="#p" transform="matrix(1,0,0,1,778.3423501799125,-832.5396454671117) translate(0 14.4)"/><use xlink:href="#q" transform="matrix(1,0,0,1,778.3423501799125,-832.5396454671117) translate(67.9 14.4)"/><use xlink:href="#r" transform="matrix(1,0,0,1,778.3423501799125,-832.5396454671117) translate(0 36)"/><use xlink:href="#s" transform="matrix(1,0,0,1,778.3423501799125,-832.5396454671117) translate(0 57.6)"/><use xlink:href="#t" transform="matrix(1,0,0,1,778.3423501799125,-832.5396454671117) translate(36.900000000000006 57.6)"/><path d="M741.9-570.9l-1.76.2-9.1.56-9.53.2v-1l9.5-.2 9.06-.57 1.85-.2zm220.76-97.56l-2.72.17-8.3.88-7.73 1.14-7.2 1.37-6.85 1.6-6.55 1.83-6.34 2.06-6.22 2.3-6.18 2.6-6.25 2.94-6.47 3.4-6.95 4-7.9 5.02-5 3.7h-1.68l6.12-4.52 7.94-5.05 6.98-4.05 6.52-3.4 6.3-2.97 6.2-2.6 6.27-2.34 6.38-2.07 6.6-1.84 6.88-1.6 7.27-1.4 7.75-1.14 8.36-.9 2.74-.16z"/><path d="M721.53-569.95l-.53.02v-1l.5-.02zM977.38-669.5l-14.08 5.15-.34-9.26z"/><path d="M979-669.57l-16.18 5.93-.4-10.64zm-15.23 4.52l12-4.4-12.3-3.5z"/><use xlink:href="#p" transform="matrix(1,0,0,1,741.9129628462107,-635.4296275418897) translate(0 14.4)"/><use xlink:href="#u" transform="matrix(1,0,0,1,741.9129628462107,-635.4296275418897) translate(67.9 14.4)"/><use xlink:href="#v" transform="matrix(1,0,0,1,741.9129628462107,-635.4296275418897) translate(0 36)"/><use xlink:href="#w" transform="matrix(1,0,0,1,741.9129628462107,-635.4296275418897) translate(49 36)"/><use xlink:href="#x" transform="matrix(1,0,0,1,741.9129628462107,-635.4296275418897) translate(84 36)"/><use xlink:href="#y" transform="matrix(1,0,0,1,741.9129628462107,-635.4296275418897) translate(0 57.6)"/><use xlink:href="#s" transform="matrix(1,0,0,1,741.9129628462107,-635.4296275418897) translate(0 79.20000000000002)"/><use xlink:href="#t" transform="matrix(1,0,0,1,741.9129628462107,-635.4296275418897) translate(36.900000000000006 79.20000000000002)"/><path d="M722.83-502.67l.62 1.9.68 1.84.73 1.74.78 1.67.84 1.6.9 1.55.93 1.48 1 1.44 1.07 1.4 1.12 1.35 1.18 1.3 1.26 1.3 1.34 1.25 1.42 1.23 1.5 1.2 1.62 1.17 1.73 1.15 1.84 1.1 1.98 1.1 2.14 1.07 2.3 1.02 2.5.98 2.73.95 2.96.9 3.25.83 3.56.75 3.9.67 4.33.54 4.76.4 5.28.23h5.86l6.5-.27 7.2-.6 7.04-.9v1l-6.93.88-7.25.6-6.54.3h-5.9l-5.33-.23-4.8-.4-4.36-.54-3.95-.67-3.6-.77-3.28-.84-3-.92-2.76-.96-2.54-1-2.35-1.05-2.18-1.08-2.03-1.12-1.9-1.14-1.75-1.17-1.65-1.2-1.54-1.22-1.45-1.25-1.36-1.3-1.3-1.3-1.2-1.35-1.15-1.4-1.1-1.42-1.02-1.47-.97-1.53-.9-1.57-.85-1.64-.8-1.7-.75-1.8-.7-1.85-.63-1.95-.32-1.15.96-.27zM997.3-618.5l-.05 2.68-.2 3.22-.35 3.26-.5 3.32-.64 3.4-.8 3.46-1 3.56-1.2 3.66-1.4 3.78-1.64 3.9-1.9 4.06-2.2 4.2-2.54 4.38-2.9 4.56-3.3 4.77-3.8 5-4.3 5.2-4.9 5.43-5.57 5.68-6.27 5.9-7.07 6.1-7.9 6.27-8.78 6.37-9.62 6.38-.9.55h-1.92l2.3-1.4 9.57-6.35 8.74-6.35 7.88-6.23 7.04-6.08 6.25-5.87 5.54-5.65 4.88-5.4 4.28-5.18 3.76-4.95 3.3-4.73 2.87-4.54 2.5-4.34 2.18-4.17 1.9-4 1.63-3.88 1.4-3.73 1.17-3.63.98-3.5.8-3.43.64-3.35.5-3.28.33-3.23.2-3.16.05-2.65z"/><path d="M997.3-618.47l-1-.02v-.5h1.02zM726.57-504.7l-9.2 1.17 2.8-14.73z"/><path d="M727.32-504.3l-10.56 1.36 3.2-16.93zm-9.32.2l7.83-1-5.45-11.56z"/><use xlink:href="#z" transform="matrix(1,0,0,1,809.6819891255849,-509.4335139787921) translate(0 14.4)"/><use xlink:href="#A" transform="matrix(1,0,0,1,809.6819891255849,-509.4335139787921) translate(59.900000000000006 14.4)"/><use xlink:href="#n" transform="matrix(1,0,0,1,809.6819891255849,-509.4335139787921) translate(0 36)"/><use xlink:href="#B" transform="matrix(1,0,0,1,809.6819891255849,-509.4335139787921) translate(48.95 36)"/><use xlink:href="#C" transform="matrix(1,0,0,1,809.6819891255849,-509.4335139787921) translate(63.95 36)"/><path d="M1012.46-618.48l-.38 18.4-1.18 18.72-1.94 18.46-2.67 18.1-3.38 17.67-4.03 17.17-4.64 16.6-5.2 16-5.7 15.34-6.17 14.67-6.58 13.98-6.94 13.27-7.26 12.58-7.55 11.9-7.8 11.2-8 10.56-8.2 9.92-8.38 9.3-8.55 8.73-8.68 8.14-8.82 7.6-8.94 7.1-9.06 6.6-9.2 6.1-9.34 5.66-9.47 5.2-9.62 4.78-9.76 4.35-9.94 3.94-10.13 3.53-10.33 3.1-10.55 2.72-10.8 2.3-11.06 1.86-11.36 1.44-11.68.98-1.8.07-.05-1 1.8-.07 11.63-.98 11.3-1.42 11.03-1.87 10.76-2.28 10.5-2.7 10.3-3.1 10.1-3.52 9.9-3.92 9.73-4.32 9.57-4.76 9.43-5.2 9.3-5.62 9.17-6.1 9.03-6.56 8.92-7.06 8.78-7.58 8.65-8.13 8.5-8.68 8.36-9.3 8.2-9.88 7.97-10.52 7.77-11.18 7.52-11.85 7.24-12.55 6.92-13.24 6.56-13.93 6.15-14.63 5.7-15.3 5.17-15.96 4.62-16.57 4.02-17.13 3.36-17.63 2.67-18.06 1.93-18.42 1.18-18.68.38-18.4z"/><path d="M1012.46-618.47l-1-.02v-.5h1zM737.02-266.28l-14.4-4.2 14.12-5.06z"/><path d="M737.54-265.6L721-270.44l16.22-5.82zm-13.3-4.93l12.26 3.58-.24-7.9z"/><use xlink:href="#D" transform="matrix(1,0,0,1,783.2078869401832,-386.0054169857221) translate(0 14.4)"/><use xlink:href="#E" transform="matrix(1,0,0,1,783.2078869401832,-386.0054169857221) translate(50.95 14.4)"/><use xlink:href="#F" transform="matrix(1,0,0,1,783.2078869401832,-386.0054169857221) translate(0 36)"/><path d="M1028.67-602.6l-.95 17.66-2.1 22.12-3.3 23.7-4.43 24.54-5.53 24.6-6.42 23.88-7.08 22.53-7.5 20.77-7.68 18.8-7.73 16.85-7.63 14.95-7.45 13.2-7.23 11.63-6.97 10.24-6.7 9.02-6.46 7.95-6.2 7.02-5.96 6.2-5.74 5.5-5.54 4.9-5.36 4.32-49.4 38.36-8.3 5.8-5.82 3.7-4.77 2.76-4.24 2.22-3.96 1.87-3.88 1.64-3.9 1.46-4.1 1.32-4.4 1.23-4.94 1.16-5.77 1.1-7.18 1.06-9.75 1-15.7.96-47.1.7-.02-1 47.1-.7 15.64-.95 9.7-1 7.14-1.05 5.73-1.1 4.9-1.14 4.37-1.2 4.05-1.33 3.88-1.44 3.83-1.6 3.94-1.85 4.2-2.2 4.73-2.74 5.78-3.67 8.28-5.77L904.12-293l5.33-4.3 5.5-4.86 5.73-5.47 5.93-6.18 6.18-7 6.42-7.92 6.68-9 6.95-10.2 7.2-11.6 7.43-13.16 7.6-14.9 7.7-16.8 7.68-18.78 7.48-20.73 7.07-22.47 6.4-23.84 5.5-24.58 4.45-24.5 3.26-23.65 2.13-22.08.94-17.65z"/><path d="M721.52-225.88H721v-1h.5zM1032.82-603.02l-9.27-.2 4.95-14.16z"/><path d="M1033.5-602.5l-10.65-.24 5.68-16.26zm-9.25-1.2l7.9.17-3.7-12.23z"/><use xlink:href="#G" transform="matrix(1,0,0,1,776.3559385174548,-232.52591754134622) translate(0 14.4)"/><use xlink:href="#H" transform="matrix(1,0,0,1,776.3559385174548,-232.52591754134622) translate(67.9 14.4)"/><use xlink:href="#I" transform="matrix(1,0,0,1,776.3559385174548,-232.52591754134622) translate(0 36)"/><use xlink:href="#J" transform="matrix(1,0,0,1,776.3559385174548,-232.52591754134622) translate(0 57.6)"/><path d="M283.3-1135.32l-14.6 12.07-14.28 12.86-13.95 13.68-13.6 14.5-13.24 15.32-12.82 16.18-12.36 17.03-11.9 17.9-11.34 18.76-10.77 19.6L144.28-957l-9.46 21.26-8.73 22.04-7.95 22.8-7.1 23.52-6.2 24.17-5.26 24.78-4.3 25.34-3.26 25.82-2.2 26.25-1 23.64-1-.04 1-23.67 2.2-26.3 3.27-25.86 4.3-25.38 5.28-24.84 6.2-24.2 7.12-23.57 7.96-22.85 8.74-22.08 9.48-21.3 10.16-20.47 10.8-19.64 11.37-18.8 11.92-17.92 12.4-17.06 12.84-16.2 13.26-15.37 13.63-14.52 14-13.7 14.3-12.9 14.63-12.1 6.52-4.94h1.66zm275.2-94.6l-19.72.4-19.67 1.24-19.17 2.02-18.72 2.76-18.3 3.5-17.9 4.2-17.54 4.9-15.54 5.04h-3.08l1.1-.4 17.23-5.6 17.58-4.92 17.95-4.2 18.34-3.5 18.77-2.77 19.22-2.02 19.72-1.24 19.74-.42z"/><path d="M559-1229.93h-.5l-.03-1h.53zM92.97-716.8l-4.86 14.18-4.4-14.34z"/><path d="M93.67-717.3l-5.6 16.3-5.04-16.47zm-5.53 13.06l4.14-12.08-7.9-.13z"/><use xlink:href="#l" transform="matrix(1,0,0,1,250.16397664820886,-1205.8601689443492) translate(0 14.4)"/><use xlink:href="#K" transform="matrix(1,0,0,1,250.16397664820886,-1205.8601689443492) translate(43 14.4)"/><use xlink:href="#L" transform="matrix(1,0,0,1,250.16397664820886,-1205.8601689443492) translate(65.9 14.4)"/><use xlink:href="#M" transform="matrix(1,0,0,1,250.16397664820886,-1205.8601689443492) translate(0 36)"/><use xlink:href="#N" transform="matrix(1,0,0,1,250.16397664820886,-1205.8601689443492) translate(40 36)"/><use xlink:href="#O" transform="matrix(1,0,0,1,250.16397664820886,-1205.8601689443492) translate(86.95 36)"/><use xlink:href="#P" transform="matrix(1,0,0,1,250.16397664820886,-1205.8601689443492) translate(119.9 36)"/><use xlink:href="#Q" transform="matrix(1,0,0,1,250.16397664820886,-1205.8601689443492) translate(0 57.6)"/><use xlink:href="#R" transform="matrix(1,0,0,1,250.16397664820886,-1205.8601689443492) translate(25.95 57.6)"/><use xlink:href="#S" transform="matrix(1,0,0,1,250.16397664820886,-1205.8601689443492) translate(69.95 57.6)"/><use xlink:href="#T" transform="matrix(1,0,0,1,250.16397664820886,-1205.8601689443492) translate(121.85000000000001 57.6)"/><path d="M1032-1420h128v99.13c-21.38-16.55-34.7-16.55-42.75-16.55-12.8 0-29.83 16.55-42.63 16.55-7.93 0-21.37 0-42.62-16.55z" stroke="#000" stroke-width="2" fill="#fff"/><use xlink:href="#U" transform="matrix(1,0,0,1,1037,-1415) translate(16.049999999999997 39.49375)"/><path d="M1089.58-920.15l-12.37 52.25-6.93 36.23-4.58 30.87-2.97 28.17-1.7 26.65-.52 25.35-1-.02.54-25.37 1.7-26.7 2.96-28.2 4.58-30.92 6.95-36.27 12.38-52.3 21.46-83.45h1.04zm16.02-389.1l6.55 15.6 5.6 15.03 4.75 14.6 4 14.34 3.32 14.17 2.7 14.1 2.1 14.22 1.5 14.43.94 14.83.32 15.43-.34 16.32-1.12 17.58-2.05 19.5-3.35 22.53-5.4 28.2-2.92 11.32h-1.03l2.97-11.53 5.4-28.16 3.34-22.5 2.05-19.45 1.1-17.53.35-16.26-.32-15.38-.93-14.8-1.5-14.38-2.1-14.16-2.7-14.08-3.3-14.13-4-14.3-4.73-14.56-5.58-15-6.53-15.53-2.1-4.43.9-.43z"/><path d="M1060.5-720.64v.5h-1v-.52zM1107.02-1315.92l-8.37 4-1.95-14.88z"/><path d="M1107.86-1315.77l-9.6 4.6-2.26-17.1zm-8.8 3.1l7.12-3.4-8.8-9.27z"/><use xlink:href="#l" transform="matrix(1,0,0,1,1026.7594526012515,-1047.0486184245324) translate(0 14.4)"/><use xlink:href="#V" transform="matrix(1,0,0,1,1026.7594526012515,-1047.0486184245324) translate(43 14.4)"/><use xlink:href="#W" transform="matrix(1,0,0,1,1026.7594526012515,-1047.0486184245324) translate(94.9 14.4)"/><use xlink:href="#X" transform="matrix(1,0,0,1,1026.7594526012515,-1047.0486184245324) translate(0 36)"/><use xlink:href="#Y" transform="matrix(1,0,0,1,1026.7594526012515,-1047.0486184245324) translate(58.95 36)"/><use xlink:href="#Z" transform="matrix(1,0,0,1,1026.7594526012515,-1047.0486184245324) translate(78.95 36)"/><use xlink:href="#aa" transform="matrix(1,0,0,1,1026.7594526012515,-1047.0486184245324) translate(142.85 36)"/><path d="M371.48-1016.73l-80.97 176.5-13.46 24.56L266-797.43l-9.54 14.4-8.55 11.78-7.8 9.86-7.23 8.4-6.8 7.24-6.42 6.3-6.13 5.52-5.9 4.88-5.7 4.33-5.53 3.85-5.43 3.44-5.3 3.07-5.26 2.74-5.2 2.45-5.16 2.17-5.17 1.9-5.2 1.7-5.2 1.46-5.3 1.24-5.37 1.02-5.47.8-.93.1-.1-.98.9-.1 5.44-.8 5.33-1.02 5.24-1.23 5.2-1.46 5.14-1.67 5.13-1.9 5.14-2.17 5.17-2.43 5.2-2.72 5.3-3.05 5.37-3.42 5.5-3.82 5.67-4.3 5.87-4.86 6.1-5.5 6.4-6.26 6.75-7.2 7.2-8.37 7.8-9.82 8.52-11.75 9.53-14.37 11-18.2 13.44-24.52 80.98-176.46 6.28-12.7h1.1zm187.02-180.15l-5.42.1-5.72.37-5.57.58-5.44.8-5.33 1.02-5.24 1.23-5.2 1.44-5.14 1.68-5.13 1.9-5.14 2.16-5.17 2.44-5.2 2.73-5.3 3.05-5.37 3.4-5.5 3.84-5.67 4.3-5.87 4.85-6.1 5.5-6.4 6.28-6.75 7.2-7.2 8.36-7.8 9.83-8.52 11.74-9.53 14.38-1.85 3.06h-1.16l2.17-3.6 9.54-14.4 8.55-11.77 7.8-9.86 7.23-8.4 6.8-7.22 6.42-6.3 6.13-5.52 5.9-4.88 5.7-4.33 5.53-3.85 5.43-3.44 5.3-3.07 5.26-2.75 5.2-2.45 5.16-2.18 5.17-1.92 5.2-1.68 5.2-1.46 5.3-1.24 5.37-1.03 5.47-.82 5.6-.58 5.77-.37 5.44-.1zM559-1196.9l-.5.02-.03-1h.53zM137.13-694.6l-14.5-3.8 13.95-5.46z"/><path d="M137.67-693.95L121-698.3l16.04-6.28zm-13.44-4.53l12.36 3.2-.48-7.87z"/><use xlink:href="#l" transform="matrix(1,0,0,1,304.9250411574934,-1094.6593655364643) translate(0 14.4)"/><use xlink:href="#O" transform="matrix(1,0,0,1,304.9250411574934,-1094.6593655364643) translate(43 14.4)"/><use xlink:href="#ab" transform="matrix(1,0,0,1,304.9250411574934,-1094.6593655364643) translate(75.95 14.4)"/><use xlink:href="#Q" transform="matrix(1,0,0,1,304.9250411574934,-1094.6593655364643) translate(0 36)"/><use xlink:href="#K" transform="matrix(1,0,0,1,304.9250411574934,-1094.6593655364643) translate(25.95 36)"/><use xlink:href="#ac" transform="matrix(1,0,0,1,304.9250411574934,-1094.6593655364643) translate(48.849999999999994 36)"/><use xlink:href="#Q" transform="matrix(1,0,0,1,304.9250411574934,-1094.6593655364643) translate(0 57.6)"/><use xlink:href="#R" transform="matrix(1,0,0,1,304.9250411574934,-1094.6593655364643) translate(25.95 57.6)"/><use xlink:href="#S" transform="matrix(1,0,0,1,304.9250411574934,-1094.6593655364643) translate(69.95 57.6)"/><use xlink:href="#T" transform="matrix(1,0,0,1,304.9250411574934,-1094.6593655364643) translate(121.85000000000001 57.6)"/><path d="M525.13-571.62l33.37.68-.02 1-33.4-.68-22.65-1.4v-1.02zM154.9-650.25l28.04 1.75 24.06 2.52 21.4 3.15 19.82 3.78 19.3 4.53 20.4 5.7 19.8 6.9h-3.04l-17.05-5.94-20.35-5.7-19.27-4.5-19.76-3.78-21.37-3.15-24-2.5-28-1.75-17.5-.35.02-1z"/><path d="M559-570.93v1l-.53-.02.02-1zM136.8-645.48l-14.18-4.92 14.35-4.35z"/><path d="M137.27-644.78L121-650.43l16.5-5zm-13.03-5.6l12.06 4.2.16-7.9z"/><g><use xlink:href="#ad" transform="matrix(1,0,0,1,303.52546413775474,-621.921453544101) translate(0 14.4)"/><use xlink:href="#ae" transform="matrix(1,0,0,1,303.52546413775474,-621.921453544101) translate(93.9 14.4)"/><use xlink:href="#af" transform="matrix(1,0,0,1,303.52546413775474,-621.921453544101) translate(113.9 14.4)"/><use xlink:href="#ag" transform="matrix(1,0,0,1,303.52546413775474,-621.921453544101) translate(168.9 14.4)"/><use xlink:href="#ah" transform="matrix(1,0,0,1,303.52546413775474,-621.921453544101) translate(0 36)"/><use xlink:href="#ai" transform="matrix(1,0,0,1,303.52546413775474,-621.921453544101) translate(56.9 36)"/><use xlink:href="#aj" transform="matrix(1,0,0,1,303.52546413775474,-621.921453544101) translate(96.9 36)"/><use xlink:href="#ak" transform="matrix(1,0,0,1,303.52546413775474,-621.921453544101) translate(133.8 36)"/><use xlink:href="#al" transform="matrix(1,0,0,1,303.52546413775474,-621.921453544101) translate(0 57.6)"/><use xlink:href="#am" transform="matrix(1,0,0,1,303.52546413775474,-621.921453544101) translate(69.9 57.6)"/><use xlink:href="#an" transform="matrix(1,0,0,1,303.52546413775474,-621.921453544101) translate(118.9 57.6)"/></g><path d="M143.67-606.12l10.66 1.35 11.87 2 13.4 2.87 15.35 3.95 17.95 5.43 21.62 7.55 27.36 10.86 179.45 87.4 6.15 2.76h-2.45l-4.12-1.85-179.42-87.4-27.3-10.84-21.6-7.53-17.9-5.42-15.3-3.93-13.36-2.85-11.84-2-10.62-1.35-6.24-.53.1-1zm441.96 86.77l-.14 6.93-.4 6.24-.56 5.3-.67 4.57-.76 3.96-.8 3.5-.86 3.08-.9 2.76-.4 1.06h-1.06l.52-1.4.88-2.7.85-3.06.8-3.45.75-3.93.67-4.52.55-5.26.4-6.2.13-6.9z"/><path d="M585.63-519.34l-1-.02v-.5h1zM136.67-601.55l-14.05-5.24 14.45-4z"/><path d="M137.14-600.84L121-606.86l16.6-4.6zm-12.9-5.88l11.96 4.47.34-7.9z"/><g><use xlink:href="#ao" transform="matrix(1,0,0,1,405.0249694997574,-481.94145175890253) translate(0 14.4)"/><use xlink:href="#ap" transform="matrix(1,0,0,1,405.0249694997574,-481.94145175890253) translate(56 14.4)"/><use xlink:href="#aq" transform="matrix(1,0,0,1,405.0249694997574,-481.94145175890253) translate(102.95 14.4)"/><use xlink:href="#ar" transform="matrix(1,0,0,1,405.0249694997574,-481.94145175890253) translate(0 36)"/><use xlink:href="#as" transform="matrix(1,0,0,1,405.0249694997574,-481.94145175890253) translate(20 36)"/><use xlink:href="#at" transform="matrix(1,0,0,1,405.0249694997574,-481.94145175890253) translate(75.85 36)"/><use xlink:href="#au" transform="matrix(1,0,0,1,405.0249694997574,-481.94145175890253) translate(145.75 36)"/></g><path d="M102.7-579.9l1.06 12.65 1.53 12.2 2 11.78 2.4 11.42 2.86 11.1 3.27 10.8 3.67 10.57 4.1 10.35 4.52 10.15 4.95 9.98 5.4 9.83 5.9 9.72 6.37 9.6 6.92 9.5 7.48 9.45 8.1 9.37 8.73 9.3 9.46 9.27 10.23 9.2 11.07 9.16 11.97 9.1 12.98 9 14.05 8.92 15.22 8.78 16.5 8.62 17.83 8.4 19.3 8.1 20.8 7.73 22.4 7.27 23.97 6.7 25.54 5.98 27.02 5.15 28.35 4.18 29.45 3.1 30.23 1.9 30.15.62-.02 1-30.17-.63-30.26-1.9-29.5-3.1-28.4-4.2-27.06-5.15-25.58-6-24.02-6.7-22.42-7.27-20.85-7.75-19.32-8.13-17.9-8.4-16.5-8.64-15.27-8.8-14.08-8.94-13-9.04-12.02-9.1-11.1-9.2-10.25-9.23-9.5-9.3-8.77-9.33-8.1-9.4-7.52-9.47-6.94-9.55-6.4-9.64-5.9-9.75-5.43-9.87-5-10.02-4.52-10.2-4.1-10.37-3.7-10.6-3.28-10.85-2.86-11.14-2.44-11.46-2-11.83-1.54-12.24-1.06-12.7-.16-3.63 1-.05zM559-270.93v1l-.53-.02.02-1zM106.66-584.13l-9.26.27 4.22-14.4z"/><path d="M107.37-583.65l-10.65.3 4.85-16.52zm-9.3-.73l7.9-.23-4.3-12.03z"/><g><use xlink:href="#av" transform="matrix(1,0,0,1,226.65199213369718,-410.4919190311788) translate(0 14.4)"/><use xlink:href="#aw" transform="matrix(1,0,0,1,226.65199213369718,-410.4919190311788) translate(56 14.4)"/><use xlink:href="#ax" transform="matrix(1,0,0,1,226.65199213369718,-410.4919190311788) translate(148.9 14.4)"/><use xlink:href="#ay" transform="matrix(1,0,0,1,226.65199213369718,-410.4919190311788) translate(0 36)"/><use xlink:href="#w" transform="matrix(1,0,0,1,226.65199213369718,-410.4919190311788) translate(65.95 36)"/><use xlink:href="#az" transform="matrix(1,0,0,1,226.65199213369718,-410.4919190311788) translate(100.95 36)"/><use xlink:href="#aA" transform="matrix(1,0,0,1,226.65199213369718,-410.4919190311788) translate(0 57.6)"/><use xlink:href="#aB" transform="matrix(1,0,0,1,226.65199213369718,-410.4919190311788) translate(67.9 57.6)"/></g><path d="M160-1379.13h160v99.13H160z" stroke="#000" stroke-opacity="0" stroke-width="2" fill="#fff" fill-opacity="0"/><g><use xlink:href="#aC" transform="matrix(1,0,0,1,165,-1374.1304347826087) translate(6.858024691358025 50.20138888888889)"/></g><path d="M558.5-930.42l-12 .24-11.64.73-10.92 1.15-10.33 1.52-9.8 1.88-9.43 2.2-9.1 2.54-8.83 2.87-8.65 3.23-8.54 3.6-8.5 3.98-8.52 4.47-8.65 5-8.92 5.65-9.3 6.48-9.98 7.57-11.07 9.17-13.12 11.84L362.58-838l-63.78 65.6-13.13 11.83-11.07 9.17-9.97 7.57-9.3 6.48-8.92 5.65-8.64 5-8.53 4.46-8.5 4-8.52 3.58-8.64 3.22-8.84 2.87-9.1 2.54-9.4 2.2-9.83 1.88-10.34 1.52-10.92 1.15-7.77.5" stroke="#000" fill="none"/><path d="M559-929.93h-.5l-.03-1h.53z"/><path d="M122.62-698.34l14.1-5.07.3 9.25z" stroke="#000"/><g><use xlink:href="#aD" transform="matrix(1,0,0,1,376.51174973865267,-870.4029638517002) translate(0 14.4)"/><use xlink:href="#aE" transform="matrix(1,0,0,1,376.51174973865267,-870.4029638517002) translate(49.25 14.4)"/><use xlink:href="#aF" transform="matrix(1,0,0,1,376.51174973865267,-870.4029638517002) translate(75.2 14.4)"/><use xlink:href="#aG" transform="matrix(1,0,0,1,376.51174973865267,-870.4029638517002) translate(156.15 14.4)"/><use xlink:href="#Q" transform="matrix(1,0,0,1,376.51174973865267,-870.4029638517002) translate(0 36)"/><use xlink:href="#R" transform="matrix(1,0,0,1,376.51174973865267,-870.4029638517002) translate(25.95 36)"/><use xlink:href="#S" transform="matrix(1,0,0,1,376.51174973865267,-870.4029638517002) translate(69.95 36)"/><use xlink:href="#aH" transform="matrix(1,0,0,1,376.51174973865267,-870.4029638517002) translate(121.85000000000001 36)"/><use xlink:href="#aI" transform="matrix(1,0,0,1,376.51174973865267,-870.4029638517002) translate(0 57.6)"/></g><path d="M1257.54-503.22l9.13.77-.08 1-9.16-.77-9-1.14v-1zM1123.92-614.2l.3 4.6.45 4.45.64 4.28.8 4.16.95 4.03 1.1 3.93 1.24 3.84 1.4 3.75 1.54 3.7 1.7 3.6 1.27 2.44h-1.12l-1.04-2-1.72-3.66-1.56-3.72-1.4-3.8-1.27-3.87-1.12-3.97-.96-4.08-.8-4.2-.64-4.33-.47-4.48-.28-4.66-.1-4.33h1z"/><path d="M1123.83-618.5l-1 .03v-.53h1zM1281.38-501.45l-14.4 4.15.3-9.27z"/><path d="M1283-501.4l-16.56 4.77.37-10.64zm-15.5 3.42l12.27-3.52-12-4.37z"/><g><use xlink:href="#aJ" transform="matrix(1,0,0,1,1105.627866328282,-571.4133785756486) translate(0 14.4)"/><use xlink:href="#aK" transform="matrix(1,0,0,1,1105.627866328282,-571.4133785756486) translate(56 14.4)"/><use xlink:href="#aL" transform="matrix(1,0,0,1,1105.627866328282,-571.4133785756486) translate(0 36)"/><use xlink:href="#aM" transform="matrix(1,0,0,1,1105.627866328282,-571.4133785756486) translate(36.900000000000006 36)"/><use xlink:href="#aN" transform="matrix(1,0,0,1,1105.627866328282,-571.4133785756486) translate(79.85000000000001 36)"/><use xlink:href="#aO" transform="matrix(1,0,0,1,1105.627866328282,-571.4133785756486) translate(0 57.6)"/><use xlink:href="#aP" transform="matrix(1,0,0,1,1105.627866328282,-571.4133785756486) translate(47.95 57.6)"/><use xlink:href="#aQ" transform="matrix(1,0,0,1,1105.627866328282,-571.4133785756486) translate(0 79.20000000000002)"/></g><path d="M1163.5-669.36l14.18 1.18 13.3 1.68 12.27 2.07 11.25 2.4 10.24 2.62 9.3 2.8 8.43 2.92 7.63 3.02 6.93 3.08 6.28 3.12 5.73 3.14 5.22 3.16L1279-635l4.37 3.17 4 3.17 3.67 3.17 3.38 3.18 3.12 3.18 2.88 3.2 2.65 3.2 2.46 3.24 2.27 3.26 2.1 3.3 1.92 3.35 1.78 3.4 1.62 3.46 1.48 3.52 1.35 3.6 1.2 3.72 1.07 3.8.92 3.95.78 4.08.62 4.23.46 4.42.3 4.6.08 4.35-1 .02-.08-4.32-.3-4.57-.45-4.37-.62-4.2-.77-4.04-.9-3.9-1.07-3.77-1.2-3.68-1.33-3.57-1.46-3.5-1.6-3.4-1.76-3.36-1.9-3.32-2.08-3.26-2.24-3.23-2.43-3.2-2.64-3.2-2.85-3.15-3.08-3.16-3.35-3.15-3.64-3.14-3.97-3.14-4.32-3.14-4.73-3.14-5.17-3.13-5.68-3.12-6.25-3.1-6.9-3.07-7.58-3-8.4-2.92-9.24-2.8-10.2-2.6-11.2-2.38-12.26-2.07-13.24-1.68-14.15-1.2-6.08-.24.05-1z"/><path d="M1323.5-551.96h-1l-.02-.5 1-.02zM1156.75-664.5l-14.13-5.02 14.38-4.25z"/><path d="M1157.23-663.8l-16.23-5.77 16.52-4.87zm-13-5.68l12.04 4.28.22-7.9z"/><g><use xlink:href="#av" transform="matrix(1,0,0,1,1259.0700142453513,-713.4290962535388) translate(0 14.4)"/><use xlink:href="#aR" transform="matrix(1,0,0,1,1259.0700142453513,-713.4290962535388) translate(56 14.4)"/><use xlink:href="#aS" transform="matrix(1,0,0,1,1259.0700142453513,-713.4290962535388) translate(0 36)"/><use xlink:href="#aT" transform="matrix(1,0,0,1,1259.0700142453513,-713.4290962535388) translate(0 57.6)"/><use xlink:href="#ae" transform="matrix(1,0,0,1,1259.0700142453513,-713.4290962535388) translate(82.9 57.6)"/><use xlink:href="#aU" transform="matrix(1,0,0,1,1259.0700142453513,-713.4290962535388) translate(102.9 57.6)"/><use xlink:href="#aV" transform="matrix(1,0,0,1,1259.0700142453513,-713.4290962535388) translate(0 79.20000000000002)"/></g><path d="M560-160h160v99.13H560z" stroke="#000" stroke-width="2" fill="#fff"/><g><use xlink:href="#aW" transform="matrix(1,0,0,1,565,-155) translate(30.575000000000003 48.15)"/><use xlink:href="#aX" transform="matrix(1,0,0,1,565,-155) translate(77.42500000000001 48.15)"/></g><path d="M317.88-171.53l17.73 9.27 18.2 8.56 18.63 7.83 19.06 7.1 19.48 6.32 19.9 5.56 20.33 4.78 20.74 3.95 21.14 3.12 21.55 2.27 21.97 1.38 21.9.45-.02 1-21.92-.45-22-1.4-21.6-2.26-21.18-3.12-20.78-3.97-20.36-4.77-19.95-5.57-19.54-6.34-19.1-7.1-18.67-7.85-18.24-8.56-17.77-9.3-2.87-1.65h2zM71.55-566.38l1.83 21.8 2.7 21.4 3.55 21L84-481.62l5.18 20.15 5.96 19.75 6.72 19.32 7.48 18.9 8.22 18.44 8.93 18 9.62 17.52 10.33 17.05 11 16.54 11.64 16.04 12.28 15.52 12.9 14.95 13.53 14.4 14.1 13.8L236.6-228l15.12 12.5h-1.57l-14.2-11.75-14.7-13.24-14.14-13.83-13.55-14.43-12.94-15-12.3-15.53-11.68-16.05-11.02-16.6L135.26-349l-9.66-17.56-8.95-18.04-8.23-18.48-7.5-18.93-6.73-19.36-6-19.78-5.17-20.2-4.4-20.62-3.54-21.03-2.72-21.44-1.83-21.85-.72-17.15 1-.04z"/><path d="M559-110.93v1l-.53-.02.02-1zM74.96-584.08l-9.27.18 4.33-14.35z"/><path d="M75.65-583.6l-10.64.22 5-16.5zm-9.3-.8l7.9-.17-4.18-12.06z"/><g><use xlink:href="#aY" transform="matrix(1,0,0,1,206.97460580705865,-215.50653403715722) translate(0 14.4)"/><use xlink:href="#aZ" transform="matrix(1,0,0,1,206.97460580705865,-215.50653403715722) translate(69.95 14.4)"/><use xlink:href="#ba" transform="matrix(1,0,0,1,206.97460580705865,-215.50653403715722) translate(102.9 14.4)"/><use xlink:href="#bb" transform="matrix(1,0,0,1,206.97460580705865,-215.50653403715722) translate(0 36)"/></g><path d="M1334.5-450.3l-.04 1.34-.12 1.9-.2 1.9-.3 1.95-.37 1.97-.47 2.03-.58 2.07-.7 2.14-.8 2.2-.96 2.27-1.1 2.34-1.28 2.44-1.45 2.5-1.66 2.63-1.9 2.73-2.16 2.84-2.44 2.96-2.77 3.08-3.15 3.2-3.55 3.33-3.98 3.45-4.47 3.54-4.97 3.6-5.5 3.65-6.03 3.65-6.54 3.6-7 3.47-7.4 3.3-7.7 3.04-7.9 2.76-4.25 1.28v-1.04l3.95-1.2 7.85-2.73 7.66-3.03 7.37-3.28 6.97-3.45 6.5-3.57 6-3.62 5.47-3.62 4.95-3.6 4.43-3.5 3.95-3.4 3.52-3.3 3.1-3.2 2.76-3.04 2.43-2.92 2.13-2.8 1.87-2.7 1.64-2.58 1.44-2.5 1.26-2.38 1.08-2.3.94-2.23.8-2.15.68-2.1.57-2.03.47-2 .37-1.93.28-1.9.2-1.88.1-1.84.04-1.33zm-246.55-152.3l-1 69.1.9 27.55 1.53 20.27 1.88 15.96 2.1 13 2.2 10.8 2.27 9.16 2.3 7.84 2.3 6.8 2.3 5.92 2.27 5.24 2.26 4.64 2.24 4.15 1.35 2.26h-1.17l-1.05-1.78-2.26-4.18-2.27-4.7-2.3-5.26-2.3-5.97-2.33-6.82-2.3-7.88-2.3-9.2-2.2-10.84-2.1-13.04-1.88-16-1.54-20.32-.92-27.6 1-69.13zM1334.5-450.3l-1-.02v-.5h1zM1092.1-603.05l-9.28-.14 4.84-14.18z"/><path d="M1092.77-602.54l-10.65-.16 5.57-16.3zm-9.25-1.14l7.9.12-3.78-12.2z"/><g><use xlink:href="#bc" transform="matrix(1,0,0,1,1055.0966677755293,-399.9115070619844) translate(0 14.4)"/><use xlink:href="#ba" transform="matrix(1,0,0,1,1055.0966677755293,-399.9115070619844) translate(80.95 14.4)"/><use xlink:href="#bd" transform="matrix(1,0,0,1,1055.0966677755293,-399.9115070619844) translate(0 36)"/><use xlink:href="#be" transform="matrix(1,0,0,1,1055.0966677755293,-399.9115070619844) translate(45.8 36)"/><use xlink:href="#bf" transform="matrix(1,0,0,1,1055.0966677755293,-399.9115070619844) translate(89.8 36)"/><use xlink:href="#bg" transform="matrix(1,0,0,1,1055.0966677755293,-399.9115070619844) translate(130.75 36)"/><use xlink:href="#bh" transform="matrix(1,0,0,1,1055.0966677755293,-399.9115070619844) translate(145.75 36)"/><use xlink:href="#bi" transform="matrix(1,0,0,1,1055.0966677755293,-399.9115070619844) translate(0 57.6)"/></g><path d="M1060.5-618.48l-.96 45.5-2.76 44.02-4.33 41.25-5.6 38.06-6.63 34.75-7.38 31.55-7.95 28.5-8.36 25.73-8.63 23.23-8.8 21-8.94 19-9 17.2-9.03 15.67-9.05 14.26-9.05 13.03-9.05 11.93-9.05 10.93-9.05 10.06-9.07 9.25-9.08 8.54-9.13 7.87-9.2 7.3-9.26 6.72-9.36 6.2-9.47 5.74-9.6 5.28-9.77 4.85-9.97 4.44-10.2 4.05-10.45 3.64-10.75 3.23-11.1 2.85L779-90.38l-11.9 2-12.42 1.58-12.98 1.1-4.28.17-.05-1 4.27-.18 12.93-1.1 12.37-1.56 11.88-2 11.43-2.43 11.05-2.83L812-99.86l10.4-3.63 10.17-4 9.93-4.43 9.74-4.84 9.57-5.26 9.45-5.7 9.32-6.2 9.22-6.7 9.15-7.27 9.1-7.85 9.06-8.5 9.05-9.25 9.02-10.02 9.02-10.9 9.02-11.9 9.03-13 9.02-14.23 9-15.62 9-17.2 8.9-18.94 8.8-20.96 8.62-23.2 8.33-25.68 7.94-28.46 7.37-31.5 6.62-34.7 5.6-38.03 4.32-41.2 2.76-44 .95-45.47z"/><path d="M1060.5-618.47l-1-.02v-.5h1zM737-81.4l-14.38-4.22 14.13-5.03z"/><path d="M737.53-80.7L721-85.58l16.23-5.78zm-13.3-4.96l12.26 3.6-.23-7.9z"/><g><use xlink:href="#bj" transform="matrix(1,0,0,1,845.4629720660655,-125.77615784726979) translate(0 14.4)"/><use xlink:href="#bk" transform="matrix(1,0,0,1,845.4629720660655,-125.77615784726979) translate(44.85 14.4)"/><use xlink:href="#bl" transform="matrix(1,0,0,1,845.4629720660655,-125.77615784726979) translate(120.75 14.4)"/><use xlink:href="#bm" transform="matrix(1,0,0,1,845.4629720660655,-125.77615784726979) translate(0 36)"/><use xlink:href="#bn" transform="matrix(1,0,0,1,845.4629720660655,-125.77615784726979) translate(20 36)"/><use xlink:href="#bo" transform="matrix(1,0,0,1,845.4629720660655,-125.77615784726979) translate(73.95 36)"/></g><defs><path d="M127-220V0H93v-220H8v-28h204v28h-85" id="bp"/><path d="M100-194c63 0 86 42 84 106H49c0 40 14 67 53 68 26 1 43-12 49-29l28 8c-11 28-37 45-77 45C44 4 14-33 15-96c1-61 26-98 85-98zm52 81c6-60-76-77-97-28-3 7-6 17-6 28h103" id="bq"/><path d="M24 0v-261h32V0H24" id="br"/><path d="M210-169c-67 3-38 105-44 169h-31v-121c0-29-5-50-35-48C34-165 62-65 56 0H25l-1-190h30c1 10-1 24 2 32 10-44 99-50 107 0 11-21 27-35 58-36 85-2 47 119 55 194h-31v-121c0-29-5-49-35-48" id="bs"/><path d="M59-47c-2 24 18 29 38 22v24C64 9 27 4 27-40v-127H5v-23h24l9-43h21v43h35v23H59v120" id="bt"/><path d="M114-163C36-179 61-72 57 0H25l-1-190h30c1 12-1 29 2 39 6-27 23-49 58-41v29" id="bu"/><path d="M24-231v-30h32v30H24zM24 0v-190h32V0H24" id="bv"/><path d="M135-143c-3-34-86-38-87 0 15 53 115 12 119 90S17 21 10-45l28-5c4 36 97 45 98 0-10-56-113-15-118-90-4-57 82-63 122-42 12 7 21 19 24 35" id="bw"/><g id="a"><use transform="matrix(0.05,0,0,0.05,0,0)" xlink:href="#bp"/><use transform="matrix(0.05,0,0,0.05,8.950000000000001,0)" xlink:href="#bq"/><use transform="matrix(0.05,0,0,0.05,18.950000000000003,0)" xlink:href="#br"/><use transform="matrix(0.05,0,0,0.05,22.900000000000002,0)" xlink:href="#bq"/><use transform="matrix(0.05,0,0,0.05,32.900000000000006,0)" xlink:href="#bs"/><use transform="matrix(0.05,0,0,0.05,47.85000000000001,0)" xlink:href="#bq"/><use transform="matrix(0.05,0,0,0.05,57.85,0)" xlink:href="#bt"/><use transform="matrix(0.05,0,0,0.05,62.85,0)" xlink:href="#bu"/><use transform="matrix(0.05,0,0,0.05,68.80000000000001,0)" xlink:href="#bv"/><use transform="matrix(0.05,0,0,0.05,72.75000000000001,0)" xlink:href="#bq"/><use transform="matrix(0.05,0,0,0.05,82.75000000000001,0)" xlink:href="#bw"/></g><path d="M234-2c-28 10-62 0-77-18C117 19 8 12 13-65c3-43 29-61 60-76-25-40-17-114 47-108 35 3 59 15 59 50 0 44-40 53-71 69 14 26 32 50 51 72 14-21 24-43 30-72l26 8c-9 33-21 57-38 82 13 13 33 22 57 15v23zM97-151c25-10 52-18 56-48-1-18-13-29-33-29-42 0-39 50-23 77zM42-66c-3 51 71 58 98 28-20-24-41-51-56-80-23 10-40 24-42 52" id="bx"/><use transform="matrix(0.05,0,0,0.05,0,0)" xlink:href="#bx" id="b"/><path d="M30 0v-248h187v28H63v79h144v27H63v87h162V0H30" id="by"/><path d="M108 0H70L1-190h34L89-25l56-165h34" id="bz"/><path d="M117-194c89-4 53 116 60 194h-32v-121c0-31-8-49-39-48C34-167 62-67 57 0H25l-1-190h30c1 10-1 24 2 32 11-22 29-35 61-36" id="bA"/><g id="c"><use transform="matrix(0.05,0,0,0.05,0,0)" xlink:href="#by"/><use transform="matrix(0.05,0,0,0.05,12,0)" xlink:href="#bz"/><use transform="matrix(0.05,0,0,0.05,21,0)" xlink:href="#bq"/><use transform="matrix(0.05,0,0,0.05,31,0)" xlink:href="#bA"/><use transform="matrix(0.05,0,0,0.05,41,0)" xlink:href="#bt"/><use transform="matrix(0.05,0,0,0.05,46,0)" xlink:href="#bw"/></g><path d="M240 0l2-218c-23 76-54 145-80 218h-23L58-218 59 0H30v-248h44l77 211c21-75 51-140 76-211h43V0h-30" id="bB"/><path d="M141-36C126-15 110 5 73 4 37 3 15-17 15-53c-1-64 63-63 125-63 3-35-9-54-41-54-24 1-41 7-42 31l-33-3c5-37 33-52 76-52 45 0 72 20 72 64v82c-1 20 7 32 28 27v20c-31 9-61-2-59-35zM48-53c0 20 12 33 32 33 41-3 63-29 60-74-43 2-92-5-92 41" id="bC"/><path d="M177-190C167-65 218 103 67 71c-23-6-38-20-44-43l32-5c15 47 100 32 89-28v-30C133-14 115 1 83 1 29 1 15-40 15-95c0-56 16-97 71-98 29-1 48 16 59 35 1-10 0-23 2-32h30zM94-22c36 0 50-32 50-73 0-42-14-75-50-75-39 0-46 34-46 75s6 73 46 73" id="bD"/><g id="d"><use transform="matrix(0.05,0,0,0.05,0,0)" xlink:href="#bB"/><use transform="matrix(0.05,0,0,0.05,14.950000000000001,0)" xlink:href="#bC"/><use transform="matrix(0.05,0,0,0.05,24.950000000000003,0)" xlink:href="#bA"/><use transform="matrix(0.05,0,0,0.05,34.95,0)" xlink:href="#bC"/><use transform="matrix(0.05,0,0,0.05,44.95,0)" xlink:href="#bD"/><use transform="matrix(0.05,0,0,0.05,54.95,0)" xlink:href="#bq"/><use transform="matrix(0.05,0,0,0.05,64.95,0)" xlink:href="#bu"/></g><path d="M185-189c-5-48-123-54-124 2 14 75 158 14 163 119 3 78-121 87-175 55-17-10-28-26-33-46l33-7c5 56 141 63 141-1 0-78-155-14-162-118-5-82 145-84 179-34 5 7 8 16 11 25" id="bE"/><path d="M205 0l-28-72H64L36 0H1l101-248h38L239 0h-34zm-38-99l-47-123c-12 45-31 82-46 123h93" id="bF"/><path d="M30 0v-248h33v221h125V0H30" id="bG"/><g id="e"><use transform="matrix(0.05,0,0,0.05,0,0)" xlink:href="#bE"/><use transform="matrix(0.05,0,0,0.05,12,0)" xlink:href="#bF"/><use transform="matrix(0.05,0,0,0.05,24,0)" xlink:href="#bG"/></g><path d="M197 0v-115H63V0H30v-248h33v105h134v-105h34V0h-34" id="bH"/><path d="M115-194c53 0 69 39 70 98 0 66-23 100-70 100C84 3 66-7 56-30L54 0H23l1-261h32v101c10-23 28-34 59-34zm-8 174c40 0 45-34 45-75 0-40-5-75-45-74-42 0-51 32-51 76 0 43 10 73 51 73" id="bI"/><g id="f"><use transform="matrix(0.05,0,0,0.05,0,0)" xlink:href="#bH"/><use transform="matrix(0.05,0,0,0.05,12.950000000000001,0)" xlink:href="#bq"/><use transform="matrix(0.05,0,0,0.05,22.950000000000003,0)" xlink:href="#bC"/><use transform="matrix(0.05,0,0,0.05,32.95,0)" xlink:href="#bu"/><use transform="matrix(0.05,0,0,0.05,38.900000000000006,0)" xlink:href="#bt"/><use transform="matrix(0.05,0,0,0.05,43.900000000000006,0)" xlink:href="#bI"/><use transform="matrix(0.05,0,0,0.05,53.900000000000006,0)" xlink:href="#bq"/><use transform="matrix(0.05,0,0,0.05,63.900000000000006,0)" xlink:href="#bC"/><use transform="matrix(0.05,0,0,0.05,73.9,0)" xlink:href="#bt"/><use transform="matrix(0.05,0,0,0.05,78.9,0)" xlink:href="#bw"/></g><path d="M96-169c-40 0-48 33-48 73s9 75 48 75c24 0 41-14 43-38l32 2c-6 37-31 61-74 61-59 0-76-41-82-99-10-93 101-131 147-64 4 7 5 14 7 22l-32 3c-4-21-16-35-41-35" id="bJ"/><path d="M115-194c55 1 70 41 70 98S169 2 115 4C84 4 66-9 55-30l1 105H24l-1-265h31l2 30c10-21 28-34 59-34zm-8 174c40 0 45-34 45-75s-6-73-45-74c-42 0-51 32-51 76 0 43 10 73 51 73" id="bK"/><path d="M140-251c81 0 123 46 123 126C263-53 228-8 163 1c7 30 30 48 69 40v23c-55 16-95-15-103-61C56-3 17-48 17-125c0-80 42-126 123-126zm0 227c63 0 89-41 89-101s-29-99-89-99c-61 0-89 39-89 99S79-25 140-24" id="bL"/><path d="M84 4C-5 8 30-112 23-190h32v120c0 31 7 50 39 49 72-2 45-101 50-169h31l1 190h-30c-1-10 1-25-2-33-11 22-28 36-60 37" id="bM"/><g id="g"><use transform="matrix(0.05,0,0,0.05,0,0)" xlink:href="#bE"/><use transform="matrix(0.05,0,0,0.05,12,0)" xlink:href="#bJ"/><use transform="matrix(0.05,0,0,0.05,21,0)" xlink:href="#bu"/><use transform="matrix(0.05,0,0,0.05,26.950000000000003,0)" xlink:href="#bv"/><use transform="matrix(0.05,0,0,0.05,30.899999999999995,0)" xlink:href="#bK"/><use transform="matrix(0.05,0,0,0.05,40.9,0)" xlink:href="#bt"/><use transform="matrix(0.05,0,0,0.05,45.9,0)" xlink:href="#bL"/><use transform="matrix(0.05,0,0,0.05,59.900000000000006,0)" xlink:href="#bM"/><use transform="matrix(0.05,0,0,0.05,69.9,0)" xlink:href="#bq"/><use transform="matrix(0.05,0,0,0.05,79.9,0)" xlink:href="#bM"/><use transform="matrix(0.05,0,0,0.05,89.9,0)" xlink:href="#bq"/></g><g id="h"><use transform="matrix(0.05,0,0,0.05,0,0)" xlink:href="#bE"/><use transform="matrix(0.05,0,0,0.05,12,0)" xlink:href="#bt"/><use transform="matrix(0.05,0,0,0.05,17,0)" xlink:href="#bC"/><use transform="matrix(0.05,0,0,0.05,27,0)" xlink:href="#bt"/><use transform="matrix(0.05,0,0,0.05,32,0)" xlink:href="#bq"/></g><path d="M212-179c-10-28-35-45-73-45-59 0-87 40-87 99 0 60 29 101 89 101 43 0 62-24 78-52l27 14C228-24 195 4 139 4 59 4 22-46 18-125c-6-104 99-153 187-111 19 9 31 26 39 46" id="bN"/><path d="M100-194c62-1 85 37 85 99 1 63-27 99-86 99S16-35 15-95c0-66 28-99 85-99zM99-20c44 1 53-31 53-75 0-43-8-75-51-75s-53 32-53 75 10 74 51 75" id="bO"/><path d="M85-194c31 0 48 13 60 33l-1-100h32l1 261h-30c-2-10 0-23-3-31C134-8 116 4 85 4 32 4 16-35 15-94c0-66 23-100 70-100zm9 24c-40 0-46 34-46 75 0 40 6 74 45 74 42 0 51-32 51-76 0-42-9-74-50-73" id="bP"/><g id="i"><use transform="matrix(0.05,0,0,0.05,0,0)" xlink:href="#bN"/><use transform="matrix(0.05,0,0,0.05,12.950000000000001,0)" xlink:href="#bO"/><use transform="matrix(0.05,0,0,0.05,22.950000000000003,0)" xlink:href="#bs"/><use transform="matrix(0.05,0,0,0.05,37.900000000000006,0)" xlink:href="#bs"/><use transform="matrix(0.05,0,0,0.05,52.85,0)" xlink:href="#bC"/><use transform="matrix(0.05,0,0,0.05,62.85,0)" xlink:href="#bA"/><use transform="matrix(0.05,0,0,0.05,72.85000000000001,0)" xlink:href="#bP"/></g><path d="M233-177c-1 41-23 64-60 70L243 0h-38l-65-103H63V0H30v-248c88 3 205-21 203 71zM63-129c60-2 137 13 137-47 0-61-80-42-137-45v92" id="bQ"/><g id="j"><use transform="matrix(0.05,0,0,0.05,0,0)" xlink:href="#bQ"/><use transform="matrix(0.05,0,0,0.05,12.950000000000001,0)" xlink:href="#bq"/><use transform="matrix(0.05,0,0,0.05,22.950000000000003,0)" xlink:href="#bJ"/><use transform="matrix(0.05,0,0,0.05,31.950000000000003,0)" xlink:href="#bq"/><use transform="matrix(0.05,0,0,0.05,41.95,0)" xlink:href="#bv"/><use transform="matrix(0.05,0,0,0.05,45.900000000000006,0)" xlink:href="#bz"/><use transform="matrix(0.05,0,0,0.05,54.900000000000006,0)" xlink:href="#bq"/><use transform="matrix(0.05,0,0,0.05,64.9,0)" xlink:href="#bu"/></g><path d="M33 0v-38h34V0H33" id="bR"/><path d="M179-190L93 31C79 59 56 82 12 73V49c39 6 53-20 64-50L1-190h34L92-34l54-156h33" id="bS"/><g id="k"><use transform="matrix(0.05,0,0,0.05,0,0)" xlink:href="#bs"/><use transform="matrix(0.05,0,0,0.05,14.950000000000001,0)" xlink:href="#bC"/><use transform="matrix(0.05,0,0,0.05,24.950000000000003,0)" xlink:href="#bv"/><use transform="matrix(0.05,0,0,0.05,28.900000000000002,0)" xlink:href="#bA"/><use transform="matrix(0.05,0,0,0.05,38.900000000000006,0)" xlink:href="#bR"/><use transform="matrix(0.05,0,0,0.05,43.900000000000006,0)" xlink:href="#bK"/><use transform="matrix(0.05,0,0,0.05,53.900000000000006,0)" xlink:href="#bS"/></g><path d="M143 4C61 4 22-44 18-125c-5-107 100-154 193-111 17 8 29 25 37 43l-32 9c-13-25-37-40-76-40-61 0-88 39-88 99 0 61 29 100 91 101 35 0 62-11 79-27v-45h-74v-28h105v86C228-13 192 4 143 4" id="bT"/><g id="l"><use transform="matrix(0.05,0,0,0.05,0,0)" xlink:href="#bT"/><use transform="matrix(0.05,0,0,0.05,14,0)" xlink:href="#bq"/><use transform="matrix(0.05,0,0,0.05,24,0)" xlink:href="#bt"/><use transform="matrix(0.05,0,0,0.05,29,0)" xlink:href="#bw"/></g><g id="m"><use transform="matrix(0.05,0,0,0.05,0,0)" xlink:href="#bP"/><use transform="matrix(0.05,0,0,0.05,10,0)" xlink:href="#bC"/><use transform="matrix(0.05,0,0,0.05,20,0)" xlink:href="#bt"/><use transform="matrix(0.05,0,0,0.05,25,0)" xlink:href="#bC"/></g><g id="n"><use transform="matrix(0.05,0,0,0.05,0,0)" xlink:href="#bq"/><use transform="matrix(0.05,0,0,0.05,10,0)" xlink:href="#bz"/><use transform="matrix(0.05,0,0,0.05,19,0)" xlink:href="#bq"/><use transform="matrix(0.05,0,0,0.05,29,0)" xlink:href="#bu"/><use transform="matrix(0.05,0,0,0.05,34.95,0)" xlink:href="#bS"/></g><path d="M101-251c82-7 93 87 43 132L82-64C71-53 59-42 53-27h129V0H18c2-99 128-94 128-182 0-28-16-43-45-43s-46 15-49 41l-32-3c6-41 34-60 81-64" id="bU"/><g id="o"><use transform="matrix(0.05,0,0,0.05,0,0)" xlink:href="#bU"/><use transform="matrix(0.05,0,0,0.05,10,0)" xlink:href="#bw"/></g><g id="p"><use transform="matrix(0.05,0,0,0.05,0,0)" xlink:href="#bQ"/><use transform="matrix(0.05,0,0,0.05,12.950000000000001,0)" xlink:href="#bq"/><use transform="matrix(0.05,0,0,0.05,22.950000000000003,0)" xlink:href="#bK"/><use transform="matrix(0.05,0,0,0.05,32.95,0)" xlink:href="#bO"/><use transform="matrix(0.05,0,0,0.05,42.95,0)" xlink:href="#bu"/><use transform="matrix(0.05,0,0,0.05,48.900000000000006,0)" xlink:href="#bt"/><use transform="matrix(0.05,0,0,0.05,53.900000000000006,0)" xlink:href="#bw"/></g><path d="M106-169C34-169 62-67 57 0H25v-261h32l-1 103c12-21 28-36 61-36 89 0 53 116 60 194h-32v-121c2-32-8-49-39-48" id="bV"/><g id="q"><use transform="matrix(0.05,0,0,0.05,0,0)" xlink:href="#bV"/><use transform="matrix(0.05,0,0,0.05,10,0)" xlink:href="#bq"/><use transform="matrix(0.05,0,0,0.05,20,0)" xlink:href="#bC"/><use transform="matrix(0.05,0,0,0.05,30,0)" xlink:href="#bu"/><use transform="matrix(0.05,0,0,0.05,35.95,0)" xlink:href="#bt"/><use transform="matrix(0.05,0,0,0.05,40.95,0)" xlink:href="#bI"/><use transform="matrix(0.05,0,0,0.05,50.95,0)" xlink:href="#bq"/><use transform="matrix(0.05,0,0,0.05,60.95,0)" xlink:href="#bC"/><use transform="matrix(0.05,0,0,0.05,70.95,0)" xlink:href="#bt"/></g><g id="r"><use transform="matrix(0.05,0,0,0.05,0,0)" xlink:href="#bs"/><use transform="matrix(0.05,0,0,0.05,14.950000000000001,0)" xlink:href="#bq"/><use transform="matrix(0.05,0,0,0.05,24.950000000000003,0)" xlink:href="#bw"/><use transform="matrix(0.05,0,0,0.05,33.95,0)" xlink:href="#bw"/><use transform="matrix(0.05,0,0,0.05,42.95,0)" xlink:href="#bC"/><use transform="matrix(0.05,0,0,0.05,52.95,0)" xlink:href="#bD"/><use transform="matrix(0.05,0,0,0.05,62.95,0)" xlink:href="#bq"/></g><path d="M206 0h-36l-40-164L89 0H53L-1-190h32L70-26l43-164h34l41 164 42-164h31" id="bW"/><g id="s"><use transform="matrix(0.05,0,0,0.05,0,0)" xlink:href="#bW"/><use transform="matrix(0.05,0,0,0.05,12.950000000000001,0)" xlink:href="#bv"/><use transform="matrix(0.05,0,0,0.05,16.900000000000002,0)" xlink:href="#bt"/><use transform="matrix(0.05,0,0,0.05,21.900000000000002,0)" xlink:href="#bV"/></g><path d="M143 0L79-87 56-68V0H24v-261h32v163l83-92h37l-77 82L181 0h-38" id="bX"/><g id="t"><use transform="matrix(0.05,0,0,0.05,0,0)" xlink:href="#bJ"/><use transform="matrix(0.05,0,0,0.05,9,0)" xlink:href="#bC"/><use transform="matrix(0.05,0,0,0.05,19,0)" xlink:href="#br"/><use transform="matrix(0.05,0,0,0.05,22.95,0)" xlink:href="#br"/><use transform="matrix(0.05,0,0,0.05,26.899999999999995,0)" xlink:href="#bI"/><use transform="matrix(0.05,0,0,0.05,36.9,0)" xlink:href="#bC"/><use transform="matrix(0.05,0,0,0.05,46.9,0)" xlink:href="#bJ"/><use transform="matrix(0.05,0,0,0.05,55.900000000000006,0)" xlink:href="#bX"/></g><path d="M145-31C134-9 116 4 85 4 32 4 16-35 15-94c0-59 17-99 70-100 32-1 48 14 60 33 0-11-1-24 2-32h30l-1 268h-32zM93-21c41 0 51-33 51-76s-8-73-50-73c-40 0-46 35-46 75s5 74 45 74" id="bY"/><g id="u"><use transform="matrix(0.05,0,0,0.05,0,0)" xlink:href="#bY"/><use transform="matrix(0.05,0,0,0.05,10,0)" xlink:href="#bM"/><use transform="matrix(0.05,0,0,0.05,20,0)" xlink:href="#bq"/><use transform="matrix(0.05,0,0,0.05,30,0)" xlink:href="#bM"/><use transform="matrix(0.05,0,0,0.05,40,0)" xlink:href="#bq"/></g><g id="v"><use transform="matrix(0.05,0,0,0.05,0,0)" xlink:href="#bw"/><use transform="matrix(0.05,0,0,0.05,9,0)" xlink:href="#bt"/><use transform="matrix(0.05,0,0,0.05,14,0)" xlink:href="#bC"/><use transform="matrix(0.05,0,0,0.05,24,0)" xlink:href="#bt"/><use transform="matrix(0.05,0,0,0.05,29,0)" xlink:href="#bq"/></g><g id="w"><use transform="matrix(0.05,0,0,0.05,0,0)" xlink:href="#bC"/><use transform="matrix(0.05,0,0,0.05,10,0)" xlink:href="#bA"/><use transform="matrix(0.05,0,0,0.05,20,0)" xlink:href="#bP"/></g><g id="x"><use transform="matrix(0.05,0,0,0.05,0,0)" xlink:href="#bw"/><use transform="matrix(0.05,0,0,0.05,9,0)" xlink:href="#bJ"/><use transform="matrix(0.05,0,0,0.05,18,0)" xlink:href="#bu"/><use transform="matrix(0.05,0,0,0.05,23.95,0)" xlink:href="#bv"/><use transform="matrix(0.05,0,0,0.05,27.899999999999995,0)" xlink:href="#bK"/><use transform="matrix(0.05,0,0,0.05,37.9,0)" xlink:href="#bt"/><use transform="matrix(0.05,0,0,0.05,42.9,0)" xlink:href="#bw"/></g><g id="y"><use transform="matrix(0.05,0,0,0.05,0,0)" xlink:href="#bV"/><use transform="matrix(0.05,0,0,0.05,10,0)" xlink:href="#bq"/><use transform="matrix(0.05,0,0,0.05,20,0)" xlink:href="#bC"/><use transform="matrix(0.05,0,0,0.05,30,0)" xlink:href="#bu"/><use transform="matrix(0.05,0,0,0.05,35.95,0)" xlink:href="#bt"/><use transform="matrix(0.05,0,0,0.05,40.95,0)" xlink:href="#bI"/><use transform="matrix(0.05,0,0,0.05,50.95,0)" xlink:href="#bq"/><use transform="matrix(0.05,0,0,0.05,60.95,0)" xlink:href="#bC"/><use transform="matrix(0.05,0,0,0.05,70.95,0)" xlink:href="#bt"/><use transform="matrix(0.05,0,0,0.05,75.95,0)" xlink:href="#bw"/></g><path d="M63-220v92h138v28H63V0H30v-248h175v28H63" id="bZ"/><g id="z"><use transform="matrix(0.05,0,0,0.05,0,0)" xlink:href="#bZ"/><use transform="matrix(0.05,0,0,0.05,10.950000000000001,0)" xlink:href="#bO"/><use transform="matrix(0.05,0,0,0.05,20.950000000000003,0)" xlink:href="#bu"/><use transform="matrix(0.05,0,0,0.05,26.900000000000002,0)" xlink:href="#bJ"/><use transform="matrix(0.05,0,0,0.05,35.900000000000006,0)" xlink:href="#bq"/><use transform="matrix(0.05,0,0,0.05,45.900000000000006,0)" xlink:href="#bw"/></g><g id="A"><use transform="matrix(0.05,0,0,0.05,0,0)" xlink:href="#bM"/><use transform="matrix(0.05,0,0,0.05,10,0)" xlink:href="#bK"/><use transform="matrix(0.05,0,0,0.05,20,0)" xlink:href="#bP"/><use transform="matrix(0.05,0,0,0.05,30,0)" xlink:href="#bC"/><use transform="matrix(0.05,0,0,0.05,40,0)" xlink:href="#bt"/><use transform="matrix(0.05,0,0,0.05,45,0)" xlink:href="#bq"/></g><use transform="matrix(0.05,0,0,0.05,0,0)" xlink:href="#bU" id="B"/><g id="C"><use transform="matrix(0.05,0,0,0.05,0,0)" xlink:href="#bw"/><use transform="matrix(0.05,0,0,0.05,9,0)" xlink:href="#bq"/><use transform="matrix(0.05,0,0,0.05,19,0)" xlink:href="#bJ"/><use transform="matrix(0.05,0,0,0.05,28,0)" xlink:href="#bO"/><use transform="matrix(0.05,0,0,0.05,38,0)" xlink:href="#bA"/><use transform="matrix(0.05,0,0,0.05,48,0)" xlink:href="#bP"/><use transform="matrix(0.05,0,0,0.05,58,0)" xlink:href="#bw"/></g><g id="D"><use transform="matrix(0.05,0,0,0.05,0,0)" xlink:href="#bT"/><use transform="matrix(0.05,0,0,0.05,14,0)" xlink:href="#bv"/><use transform="matrix(0.05,0,0,0.05,17.95,0)" xlink:href="#bz"/><use transform="matrix(0.05,0,0,0.05,26.950000000000003,0)" xlink:href="#bq"/><use transform="matrix(0.05,0,0,0.05,36.95,0)" xlink:href="#bw"/></g><g id="E"><use transform="matrix(0.05,0,0,0.05,0,0)" xlink:href="#bJ"/><use transform="matrix(0.05,0,0,0.05,9,0)" xlink:href="#bO"/><use transform="matrix(0.05,0,0,0.05,19,0)" xlink:href="#bs"/><use transform="matrix(0.05,0,0,0.05,33.95,0)" xlink:href="#bs"/><use transform="matrix(0.05,0,0,0.05,48.900000000000006,0)" xlink:href="#bC"/><use transform="matrix(0.05,0,0,0.05,58.900000000000006,0)" xlink:href="#bA"/><use transform="matrix(0.05,0,0,0.05,68.9,0)" xlink:href="#bP"/></g><g id="F"><use transform="matrix(0.05,0,0,0.05,0,0)" xlink:href="#bK"/><use transform="matrix(0.05,0,0,0.05,10,0)" xlink:href="#bC"/><use transform="matrix(0.05,0,0,0.05,20,0)" xlink:href="#bu"/><use transform="matrix(0.05,0,0,0.05,25.950000000000003,0)" xlink:href="#bC"/><use transform="matrix(0.05,0,0,0.05,35.95,0)" xlink:href="#bs"/><use transform="matrix(0.05,0,0,0.05,50.900000000000006,0)" xlink:href="#bq"/><use transform="matrix(0.05,0,0,0.05,60.900000000000006,0)" xlink:href="#bt"/><use transform="matrix(0.05,0,0,0.05,65.9,0)" xlink:href="#bq"/><use transform="matrix(0.05,0,0,0.05,75.9,0)" xlink:href="#bu"/><use transform="matrix(0.05,0,0,0.05,81.85000000000001,0)" xlink:href="#bw"/></g><g id="G"><use transform="matrix(0.05,0,0,0.05,0,0)" xlink:href="#bQ"/><use transform="matrix(0.05,0,0,0.05,12.950000000000001,0)" xlink:href="#bq"/><use transform="matrix(0.05,0,0,0.05,22.950000000000003,0)" xlink:href="#bt"/><use transform="matrix(0.05,0,0,0.05,27.950000000000003,0)" xlink:href="#bM"/><use transform="matrix(0.05,0,0,0.05,37.95,0)" xlink:href="#bu"/><use transform="matrix(0.05,0,0,0.05,43.900000000000006,0)" xlink:href="#bA"/><use transform="matrix(0.05,0,0,0.05,53.900000000000006,0)" xlink:href="#bw"/></g><g id="H"><use transform="matrix(0.05,0,0,0.05,0,0)" xlink:href="#bJ"/><use transform="matrix(0.05,0,0,0.05,9,0)" xlink:href="#bO"/><use transform="matrix(0.05,0,0,0.05,19,0)" xlink:href="#bs"/><use transform="matrix(0.05,0,0,0.05,33.95,0)" xlink:href="#bs"/><use transform="matrix(0.05,0,0,0.05,48.900000000000006,0)" xlink:href="#bC"/><use transform="matrix(0.05,0,0,0.05,58.900000000000006,0)" xlink:href="#bA"/><use transform="matrix(0.05,0,0,0.05,68.9,0)" xlink:href="#bP"/></g><g id="I"><use transform="matrix(0.05,0,0,0.05,0,0)" xlink:href="#bC"/><use transform="matrix(0.05,0,0,0.05,10,0)" xlink:href="#bJ"/><use transform="matrix(0.05,0,0,0.05,19,0)" xlink:href="#bX"/><use transform="matrix(0.05,0,0,0.05,28,0)" xlink:href="#bA"/><use transform="matrix(0.05,0,0,0.05,38,0)" xlink:href="#bO"/><use transform="matrix(0.05,0,0,0.05,48,0)" xlink:href="#bW"/><use transform="matrix(0.05,0,0,0.05,60.95,0)" xlink:href="#br"/><use transform="matrix(0.05,0,0,0.05,64.9,0)" xlink:href="#bq"/><use transform="matrix(0.05,0,0,0.05,74.9,0)" xlink:href="#bP"/><use transform="matrix(0.05,0,0,0.05,84.9,0)" xlink:href="#bD"/><use transform="matrix(0.05,0,0,0.05,94.9,0)" xlink:href="#bq"/><use transform="matrix(0.05,0,0,0.05,104.9,0)" xlink:href="#bs"/><use transform="matrix(0.05,0,0,0.05,119.85000000000001,0)" xlink:href="#bq"/><use transform="matrix(0.05,0,0,0.05,129.85000000000002,0)" xlink:href="#bA"/><use transform="matrix(0.05,0,0,0.05,139.85000000000002,0)" xlink:href="#bt"/></g><g id="J"><use transform="matrix(0.05,0,0,0.05,0,0)" xlink:href="#bs"/><use transform="matrix(0.05,0,0,0.05,14.950000000000001,0)" xlink:href="#bq"/><use transform="matrix(0.05,0,0,0.05,24.950000000000003,0)" xlink:href="#bw"/><use transform="matrix(0.05,0,0,0.05,33.95,0)" xlink:href="#bw"/><use transform="matrix(0.05,0,0,0.05,42.95,0)" xlink:href="#bC"/><use transform="matrix(0.05,0,0,0.05,52.95,0)" xlink:href="#bD"/><use transform="matrix(0.05,0,0,0.05,62.95,0)" xlink:href="#bq"/></g><g id="K"><use transform="matrix(0.05,0,0,0.05,0,0)" xlink:href="#bC"/><use transform="matrix(0.05,0,0,0.05,10,0)" xlink:href="#br"/><use transform="matrix(0.05,0,0,0.05,13.949999999999998,0)" xlink:href="#br"/></g><g id="L"><use transform="matrix(0.05,0,0,0.05,0,0)" xlink:href="#bq"/><use transform="matrix(0.05,0,0,0.05,10,0)" xlink:href="#bz"/><use transform="matrix(0.05,0,0,0.05,19,0)" xlink:href="#bq"/><use transform="matrix(0.05,0,0,0.05,29,0)" xlink:href="#bA"/><use transform="matrix(0.05,0,0,0.05,39,0)" xlink:href="#bt"/><use transform="matrix(0.05,0,0,0.05,44,0)" xlink:href="#bw"/></g><g id="M"><use transform="matrix(0.05,0,0,0.05,0,0)" xlink:href="#bP"/><use transform="matrix(0.05,0,0,0.05,10,0)" xlink:href="#bC"/><use transform="matrix(0.05,0,0,0.05,20,0)" xlink:href="#bt"/><use transform="matrix(0.05,0,0,0.05,25,0)" xlink:href="#bC"/></g><g id="N"><use transform="matrix(0.05,0,0,0.05,0,0)" xlink:href="#bw"/><use transform="matrix(0.05,0,0,0.05,9,0)" xlink:href="#bv"/><use transform="matrix(0.05,0,0,0.05,12.949999999999998,0)" xlink:href="#bA"/><use transform="matrix(0.05,0,0,0.05,22.95,0)" xlink:href="#bJ"/><use transform="matrix(0.05,0,0,0.05,31.950000000000003,0)" xlink:href="#bq"/></g><g id="O"><use transform="matrix(0.05,0,0,0.05,0,0)" xlink:href="#br"/><use transform="matrix(0.05,0,0,0.05,3.95,0)" xlink:href="#bC"/><use transform="matrix(0.05,0,0,0.05,13.949999999999998,0)" xlink:href="#bw"/><use transform="matrix(0.05,0,0,0.05,22.95,0)" xlink:href="#bt"/></g><path d="M68-38c1 34 0 65-14 84H32c9-13 17-26 17-46H33v-38h35" id="ca"/><g id="P"><use transform="matrix(0.05,0,0,0.05,0,0)" xlink:href="#bJ"/><use transform="matrix(0.05,0,0,0.05,9,0)" xlink:href="#bC"/><use transform="matrix(0.05,0,0,0.05,19,0)" xlink:href="#br"/><use transform="matrix(0.05,0,0,0.05,22.95,0)" xlink:href="#br"/><use transform="matrix(0.05,0,0,0.05,26.899999999999995,0)" xlink:href="#ca"/></g><path d="M101-234c-31-9-42 10-38 44h38v23H63V0H32v-167H5v-23h27c-7-52 17-82 69-68v24" id="cb"/><g id="Q"><use transform="matrix(0.05,0,0,0.05,0,0)" xlink:href="#cb"/><use transform="matrix(0.05,0,0,0.05,5,0)" xlink:href="#bO"/><use transform="matrix(0.05,0,0,0.05,15,0)" xlink:href="#bu"/></g><g id="R"><use transform="matrix(0.05,0,0,0.05,0,0)" xlink:href="#bq"/><use transform="matrix(0.05,0,0,0.05,10,0)" xlink:href="#bC"/><use transform="matrix(0.05,0,0,0.05,20,0)" xlink:href="#bJ"/><use transform="matrix(0.05,0,0,0.05,29,0)" xlink:href="#bV"/></g><path d="M24-231v-30h32v30H24zM-9 49c24 4 33-6 33-30v-209h32V24c2 40-23 58-65 49V49" id="cc"/><g id="S"><use transform="matrix(0.05,0,0,0.05,0,0)" xlink:href="#bw"/><use transform="matrix(0.05,0,0,0.05,9,0)" xlink:href="#bC"/><use transform="matrix(0.05,0,0,0.05,19,0)" xlink:href="#br"/><use transform="matrix(0.05,0,0,0.05,22.95,0)" xlink:href="#bO"/><use transform="matrix(0.05,0,0,0.05,32.95,0)" xlink:href="#bI"/><use transform="matrix(0.05,0,0,0.05,42.95,0)" xlink:href="#cc"/></g><g id="T"><use transform="matrix(0.05,0,0,0.05,0,0)" xlink:href="#bu"/><use transform="matrix(0.05,0,0,0.05,5.95,0)" xlink:href="#bq"/><use transform="matrix(0.05,0,0,0.05,15.949999999999998,0)" xlink:href="#bs"/><use transform="matrix(0.05,0,0,0.05,30.899999999999995,0)" xlink:href="#bO"/><use transform="matrix(0.05,0,0,0.05,40.9,0)" xlink:href="#bt"/><use transform="matrix(0.05,0,0,0.05,45.9,0)" xlink:href="#bq"/></g><g id="U"><use transform="matrix(0.05,0,0,0.05,0,0)" xlink:href="#bJ"/><use transform="matrix(0.05,0,0,0.05,9,0)" xlink:href="#bO"/><use transform="matrix(0.05,0,0,0.05,19,0)" xlink:href="#bA"/><use transform="matrix(0.05,0,0,0.05,29,0)" xlink:href="#cb"/><use transform="matrix(0.05,0,0,0.05,34,0)" xlink:href="#bv"/><use transform="matrix(0.05,0,0,0.05,37.95,0)" xlink:href="#bD"/><use transform="matrix(0.05,0,0,0.05,47.95,0)" xlink:href="#bR"/><use transform="matrix(0.05,0,0,0.05,52.95,0)" xlink:href="#cc"/><use transform="matrix(0.05,0,0,0.05,56.900000000000006,0)" xlink:href="#bw"/><use transform="matrix(0.05,0,0,0.05,65.9,0)" xlink:href="#bO"/><use transform="matrix(0.05,0,0,0.05,75.9,0)" xlink:href="#bA"/></g><g id="V"><use transform="matrix(0.05,0,0,0.05,0,0)" xlink:href="#bN"/><use transform="matrix(0.05,0,0,0.05,12.950000000000001,0)" xlink:href="#bE"/><use transform="matrix(0.05,0,0,0.05,24.950000000000003,0)" xlink:href="#bN"/><use transform="matrix(0.05,0,0,0.05,37.900000000000006,0)" xlink:href="#bw"/></g><g id="W"><use transform="matrix(0.05,0,0,0.05,0,0)" xlink:href="#bu"/><use transform="matrix(0.05,0,0,0.05,5.95,0)" xlink:href="#bq"/><use transform="matrix(0.05,0,0,0.05,15.949999999999998,0)" xlink:href="#bs"/><use transform="matrix(0.05,0,0,0.05,30.899999999999995,0)" xlink:href="#bO"/><use transform="matrix(0.05,0,0,0.05,40.9,0)" xlink:href="#bt"/><use transform="matrix(0.05,0,0,0.05,45.9,0)" xlink:href="#bq"/></g><g id="X"><use transform="matrix(0.05,0,0,0.05,0,0)" xlink:href="#bA"/><use transform="matrix(0.05,0,0,0.05,10,0)" xlink:href="#bC"/><use transform="matrix(0.05,0,0,0.05,20,0)" xlink:href="#bs"/><use transform="matrix(0.05,0,0,0.05,34.95,0)" xlink:href="#bq"/><use transform="matrix(0.05,0,0,0.05,44.95,0)" xlink:href="#bw"/></g><g id="Y"><use transform="matrix(0.05,0,0,0.05,0,0)" xlink:href="#bO"/><use transform="matrix(0.05,0,0,0.05,10,0)" xlink:href="#cb"/></g><g id="Z"><use transform="matrix(0.05,0,0,0.05,0,0)" xlink:href="#bv"/><use transform="matrix(0.05,0,0,0.05,3.95,0)" xlink:href="#bA"/><use transform="matrix(0.05,0,0,0.05,13.949999999999998,0)" xlink:href="#bt"/><use transform="matrix(0.05,0,0,0.05,18.95,0)" xlink:href="#bq"/><use transform="matrix(0.05,0,0,0.05,28.950000000000003,0)" xlink:href="#bu"/><use transform="matrix(0.05,0,0,0.05,34.9,0)" xlink:href="#bq"/><use transform="matrix(0.05,0,0,0.05,44.9,0)" xlink:href="#bw"/><use transform="matrix(0.05,0,0,0.05,53.900000000000006,0)" xlink:href="#bt"/></g><g id="aa"><use transform="matrix(0.05,0,0,0.05,0,0)" xlink:href="#cb"/><use transform="matrix(0.05,0,0,0.05,5,0)" xlink:href="#bu"/><use transform="matrix(0.05,0,0,0.05,10.95,0)" xlink:href="#bO"/><use transform="matrix(0.05,0,0,0.05,20.95,0)" xlink:href="#bs"/></g><g id="ab"><use transform="matrix(0.05,0,0,0.05,0,0)" xlink:href="#bz"/><use transform="matrix(0.05,0,0,0.05,9,0)" xlink:href="#bC"/><use transform="matrix(0.05,0,0,0.05,19,0)" xlink:href="#br"/><use transform="matrix(0.05,0,0,0.05,22.95,0)" xlink:href="#bM"/><use transform="matrix(0.05,0,0,0.05,32.95,0)" xlink:href="#bq"/><use transform="matrix(0.05,0,0,0.05,42.95,0)" xlink:href="#bw"/></g><g id="ac"><use transform="matrix(0.05,0,0,0.05,0,0)" xlink:href="#bt"/><use transform="matrix(0.05,0,0,0.05,5,0)" xlink:href="#bq"/><use transform="matrix(0.05,0,0,0.05,15,0)" xlink:href="#br"/><use transform="matrix(0.05,0,0,0.05,18.95,0)" xlink:href="#bq"/><use transform="matrix(0.05,0,0,0.05,28.950000000000003,0)" xlink:href="#bs"/><use transform="matrix(0.05,0,0,0.05,43.9,0)" xlink:href="#bq"/><use transform="matrix(0.05,0,0,0.05,53.900000000000006,0)" xlink:href="#bt"/><use transform="matrix(0.05,0,0,0.05,58.900000000000006,0)" xlink:href="#bu"/><use transform="matrix(0.05,0,0,0.05,64.85,0)" xlink:href="#bv"/><use transform="matrix(0.05,0,0,0.05,68.8,0)" xlink:href="#bq"/><use transform="matrix(0.05,0,0,0.05,78.8,0)" xlink:href="#bw"/></g><g id="ad"><use transform="matrix(0.05,0,0,0.05,0,0)" xlink:href="#bE"/><use transform="matrix(0.05,0,0,0.05,12,0)" xlink:href="#bM"/><use transform="matrix(0.05,0,0,0.05,22,0)" xlink:href="#bI"/><use transform="matrix(0.05,0,0,0.05,32,0)" xlink:href="#bw"/><use transform="matrix(0.05,0,0,0.05,41,0)" xlink:href="#bJ"/><use transform="matrix(0.05,0,0,0.05,50,0)" xlink:href="#bu"/><use transform="matrix(0.05,0,0,0.05,55.95,0)" xlink:href="#bv"/><use transform="matrix(0.05,0,0,0.05,59.900000000000006,0)" xlink:href="#bI"/><use transform="matrix(0.05,0,0,0.05,69.9,0)" xlink:href="#bq"/><use transform="matrix(0.05,0,0,0.05,79.9,0)" xlink:href="#bw"/></g><g id="ae"><use transform="matrix(0.05,0,0,0.05,0,0)" xlink:href="#bt"/><use transform="matrix(0.05,0,0,0.05,5,0)" xlink:href="#bO"/></g><g id="af"><use transform="matrix(0.05,0,0,0.05,0,0)" xlink:href="#bY"/><use transform="matrix(0.05,0,0,0.05,10,0)" xlink:href="#bM"/><use transform="matrix(0.05,0,0,0.05,20,0)" xlink:href="#bq"/><use transform="matrix(0.05,0,0,0.05,30,0)" xlink:href="#bM"/><use transform="matrix(0.05,0,0,0.05,40,0)" xlink:href="#bq"/></g><g id="ag"><use transform="matrix(0.05,0,0,0.05,0,0)" xlink:href="#bC"/><use transform="matrix(0.05,0,0,0.05,10,0)" xlink:href="#bA"/><use transform="matrix(0.05,0,0,0.05,20,0)" xlink:href="#bP"/></g><g id="ah"><use transform="matrix(0.05,0,0,0.05,0,0)" xlink:href="#bw"/><use transform="matrix(0.05,0,0,0.05,9,0)" xlink:href="#bJ"/><use transform="matrix(0.05,0,0,0.05,18,0)" xlink:href="#bu"/><use transform="matrix(0.05,0,0,0.05,23.95,0)" xlink:href="#bv"/><use transform="matrix(0.05,0,0,0.05,27.899999999999995,0)" xlink:href="#bK"/><use transform="matrix(0.05,0,0,0.05,37.9,0)" xlink:href="#bt"/><use transform="matrix(0.05,0,0,0.05,42.9,0)" xlink:href="#bw"/></g><g id="ai"><use transform="matrix(0.05,0,0,0.05,0,0)" xlink:href="#bP"/><use transform="matrix(0.05,0,0,0.05,10,0)" xlink:href="#bC"/><use transform="matrix(0.05,0,0,0.05,20,0)" xlink:href="#bt"/><use transform="matrix(0.05,0,0,0.05,25,0)" xlink:href="#bC"/></g><g id="aj"><use transform="matrix(0.05,0,0,0.05,0,0)" xlink:href="#bW"/><use transform="matrix(0.05,0,0,0.05,12.950000000000001,0)" xlink:href="#bv"/><use transform="matrix(0.05,0,0,0.05,16.900000000000002,0)" xlink:href="#bt"/><use transform="matrix(0.05,0,0,0.05,21.900000000000002,0)" xlink:href="#bV"/></g><g id="ak"><use transform="matrix(0.05,0,0,0.05,0,0)" xlink:href="#bw"/><use transform="matrix(0.05,0,0,0.05,9,0)" xlink:href="#bC"/><use transform="matrix(0.05,0,0,0.05,19,0)" xlink:href="#br"/><use transform="matrix(0.05,0,0,0.05,22.95,0)" xlink:href="#bO"/><use transform="matrix(0.05,0,0,0.05,32.95,0)" xlink:href="#bI"/><use transform="matrix(0.05,0,0,0.05,42.95,0)" xlink:href="#cc"/></g><g id="al"><use transform="matrix(0.05,0,0,0.05,0,0)" xlink:href="#bu"/><use transform="matrix(0.05,0,0,0.05,5.95,0)" xlink:href="#bq"/><use transform="matrix(0.05,0,0,0.05,15.949999999999998,0)" xlink:href="#bs"/><use transform="matrix(0.05,0,0,0.05,30.899999999999995,0)" xlink:href="#bO"/><use transform="matrix(0.05,0,0,0.05,40.9,0)" xlink:href="#bt"/><use transform="matrix(0.05,0,0,0.05,45.9,0)" xlink:href="#bq"/><use transform="matrix(0.05,0,0,0.05,55.900000000000006,0)" xlink:href="#bw"/></g><g id="am"><use transform="matrix(0.05,0,0,0.05,0,0)" xlink:href="#bq"/><use transform="matrix(0.05,0,0,0.05,10,0)" xlink:href="#bz"/><use transform="matrix(0.05,0,0,0.05,19,0)" xlink:href="#bq"/><use transform="matrix(0.05,0,0,0.05,29,0)" xlink:href="#bA"/><use transform="matrix(0.05,0,0,0.05,39,0)" xlink:href="#bt"/></g><g id="an"><use transform="matrix(0.05,0,0,0.05,0,0)" xlink:href="#bJ"/><use transform="matrix(0.05,0,0,0.05,9,0)" xlink:href="#bC"/><use transform="matrix(0.05,0,0,0.05,19,0)" xlink:href="#br"/><use transform="matrix(0.05,0,0,0.05,22.95,0)" xlink:href="#br"/><use transform="matrix(0.05,0,0,0.05,26.899999999999995,0)" xlink:href="#bI"/><use transform="matrix(0.05,0,0,0.05,36.9,0)" xlink:href="#bC"/><use transform="matrix(0.05,0,0,0.05,46.9,0)" xlink:href="#bJ"/><use transform="matrix(0.05,0,0,0.05,55.900000000000006,0)" xlink:href="#bX"/><use transform="matrix(0.05,0,0,0.05,64.9,0)" xlink:href="#bw"/></g><g id="ao"><use transform="matrix(0.05,0,0,0.05,0,0)" xlink:href="#bE"/><use transform="matrix(0.05,0,0,0.05,12,0)" xlink:href="#bq"/><use transform="matrix(0.05,0,0,0.05,22,0)" xlink:href="#bA"/><use transform="matrix(0.05,0,0,0.05,32,0)" xlink:href="#bP"/><use transform="matrix(0.05,0,0,0.05,42,0)" xlink:href="#bw"/></g><path d="M55-144c13 50 104 24 104 88C159 21 15 23 1-39l26-10c6 40 102 42 102-4-13-50-104-23-104-87 0-71 143-71 148-8l-29 4c-5-35-85-37-89 0" id="cd"/><path d="M67-158c15-20 31-36 64-36 94 0 33 127 27 194h-32l25-140c3-38-53-32-70-12C52-117 51-51 37 0H6l51-261h31" id="ce"/><path d="M30-147c31-64 166-65 159 27C183-49 158 1 86 4 9 8 1-88 30-147zM88-20c53 0 68-48 68-100 0-31-11-51-44-50-52 1-68 46-68 97 0 32 13 53 44 53" id="cf"/><path d="M188 0h-37l-8-164L71 0H34L18-190h31l8 164 75-164h34l8 164 74-164h31" id="cg"/><g id="ap"><use transform="matrix(0.05,0,0,0.05,0,0)" xlink:href="#cd"/><use transform="matrix(0.05,0,0,0.05,9,0)" xlink:href="#ce"/><use transform="matrix(0.05,0,0,0.05,19,0)" xlink:href="#cf"/><use transform="matrix(0.05,0,0,0.05,29,0)" xlink:href="#cg"/></g><g id="aq"><use transform="matrix(0.05,0,0,0.05,0,0)" xlink:href="#bJ"/><use transform="matrix(0.05,0,0,0.05,9,0)" xlink:href="#bO"/><use transform="matrix(0.05,0,0,0.05,19,0)" xlink:href="#bs"/><use transform="matrix(0.05,0,0,0.05,33.95,0)" xlink:href="#bs"/><use transform="matrix(0.05,0,0,0.05,48.900000000000006,0)" xlink:href="#bC"/><use transform="matrix(0.05,0,0,0.05,58.900000000000006,0)" xlink:href="#bA"/><use transform="matrix(0.05,0,0,0.05,68.9,0)" xlink:href="#bP"/><use transform="matrix(0.05,0,0,0.05,78.9,0)" xlink:href="#bw"/></g><g id="ar"><use transform="matrix(0.05,0,0,0.05,0,0)" xlink:href="#bt"/><use transform="matrix(0.05,0,0,0.05,5,0)" xlink:href="#bO"/></g><g id="as"><use transform="matrix(0.05,0,0,0.05,0,0)" xlink:href="#bt"/><use transform="matrix(0.05,0,0,0.05,5,0)" xlink:href="#bu"/><use transform="matrix(0.05,0,0,0.05,10.95,0)" xlink:href="#bv"/><use transform="matrix(0.05,0,0,0.05,14.899999999999999,0)" xlink:href="#bD"/><use transform="matrix(0.05,0,0,0.05,24.9,0)" xlink:href="#bD"/><use transform="matrix(0.05,0,0,0.05,34.9,0)" xlink:href="#bq"/><use transform="matrix(0.05,0,0,0.05,44.9,0)" xlink:href="#bu"/></g><g id="at"><use transform="matrix(0.05,0,0,0.05,0,0)" xlink:href="#bJ"/><use transform="matrix(0.05,0,0,0.05,9,0)" xlink:href="#bC"/><use transform="matrix(0.05,0,0,0.05,19,0)" xlink:href="#br"/><use transform="matrix(0.05,0,0,0.05,22.95,0)" xlink:href="#br"/><use transform="matrix(0.05,0,0,0.05,26.899999999999995,0)" xlink:href="#bI"/><use transform="matrix(0.05,0,0,0.05,36.9,0)" xlink:href="#bC"/><use transform="matrix(0.05,0,0,0.05,46.9,0)" xlink:href="#bJ"/><use transform="matrix(0.05,0,0,0.05,55.900000000000006,0)" xlink:href="#bX"/></g><g id="au"><use transform="matrix(0.05,0,0,0.05,0,0)" xlink:href="#bJ"/><use transform="matrix(0.05,0,0,0.05,9,0)" xlink:href="#bC"/><use transform="matrix(0.05,0,0,0.05,19,0)" xlink:href="#br"/><use transform="matrix(0.05,0,0,0.05,22.95,0)" xlink:href="#br"/><use transform="matrix(0.05,0,0,0.05,26.899999999999995,0)" xlink:href="#bw"/></g><g id="av"><use transform="matrix(0.05,0,0,0.05,0,0)" xlink:href="#bE"/><use transform="matrix(0.05,0,0,0.05,12,0)" xlink:href="#bq"/><use transform="matrix(0.05,0,0,0.05,22,0)" xlink:href="#bA"/><use transform="matrix(0.05,0,0,0.05,32,0)" xlink:href="#bP"/><use transform="matrix(0.05,0,0,0.05,42,0)" xlink:href="#bw"/></g><g id="aw"><use transform="matrix(0.05,0,0,0.05,0,0)" xlink:href="#bJ"/><use transform="matrix(0.05,0,0,0.05,9,0)" xlink:href="#bO"/><use transform="matrix(0.05,0,0,0.05,19,0)" xlink:href="#bs"/><use transform="matrix(0.05,0,0,0.05,33.95,0)" xlink:href="#bs"/><use transform="matrix(0.05,0,0,0.05,48.900000000000006,0)" xlink:href="#bC"/><use transform="matrix(0.05,0,0,0.05,58.900000000000006,0)" xlink:href="#bA"/><use transform="matrix(0.05,0,0,0.05,68.9,0)" xlink:href="#bP"/><use transform="matrix(0.05,0,0,0.05,78.9,0)" xlink:href="#bw"/></g><g id="ax"><use transform="matrix(0.05,0,0,0.05,0,0)" xlink:href="#bW"/><use transform="matrix(0.05,0,0,0.05,12.950000000000001,0)" xlink:href="#bv"/><use transform="matrix(0.05,0,0,0.05,16.900000000000002,0)" xlink:href="#bt"/><use transform="matrix(0.05,0,0,0.05,21.900000000000002,0)" xlink:href="#bV"/></g><g id="ay"><use transform="matrix(0.05,0,0,0.05,0,0)" xlink:href="#bC"/><use transform="matrix(0.05,0,0,0.05,10,0)" xlink:href="#bw"/><use transform="matrix(0.05,0,0,0.05,19,0)" xlink:href="#bS"/><use transform="matrix(0.05,0,0,0.05,28,0)" xlink:href="#bA"/><use transform="matrix(0.05,0,0,0.05,38,0)" xlink:href="#bJ"/><use transform="matrix(0.05,0,0,0.05,47,0)" xlink:href="#bv"/><use transform="matrix(0.05,0,0,0.05,50.95,0)" xlink:href="#bO"/></g><g id="az"><use transform="matrix(0.05,0,0,0.05,0,0)" xlink:href="#bw"/><use transform="matrix(0.05,0,0,0.05,9,0)" xlink:href="#bC"/><use transform="matrix(0.05,0,0,0.05,19,0)" xlink:href="#br"/><use transform="matrix(0.05,0,0,0.05,22.95,0)" xlink:href="#bO"/><use transform="matrix(0.05,0,0,0.05,32.95,0)" xlink:href="#bI"/><use transform="matrix(0.05,0,0,0.05,42.95,0)" xlink:href="#cc"/></g><g id="aA"><use transform="matrix(0.05,0,0,0.05,0,0)" xlink:href="#bQ"/><use transform="matrix(0.05,0,0,0.05,12.950000000000001,0)" xlink:href="#bq"/><use transform="matrix(0.05,0,0,0.05,22.950000000000003,0)" xlink:href="#bs"/><use transform="matrix(0.05,0,0,0.05,37.900000000000006,0)" xlink:href="#bO"/><use transform="matrix(0.05,0,0,0.05,47.900000000000006,0)" xlink:href="#bt"/><use transform="matrix(0.05,0,0,0.05,52.900000000000006,0)" xlink:href="#bq"/></g><g id="aB"><use transform="matrix(0.05,0,0,0.05,0,0)" xlink:href="#bO"/><use transform="matrix(0.05,0,0,0.05,10,0)" xlink:href="#bI"/><use transform="matrix(0.05,0,0,0.05,20,0)" xlink:href="#cc"/><use transform="matrix(0.05,0,0,0.05,23.95,0)" xlink:href="#bq"/><use transform="matrix(0.05,0,0,0.05,33.95,0)" xlink:href="#bJ"/><use transform="matrix(0.05,0,0,0.05,42.95,0)" xlink:href="#bt"/><use transform="matrix(0.05,0,0,0.05,47.95,0)" xlink:href="#bw"/></g><path d="M24-248c93 1 206-16 204 79-1 75-69 88-152 82V0H24v-248zm52 121c47 0 100 7 100-41 0-47-54-39-100-39v80" id="ch"/><path d="M135-150c-39-12-60 13-60 57V0H25l-1-190h47c2 13-1 29 3 40 6-28 27-53 61-41v41" id="ci"/><path d="M110-194c64 0 96 36 96 99 0 64-35 99-97 99-61 0-95-36-95-99 0-62 34-99 96-99zm-1 164c35 0 45-28 45-65 0-40-10-65-43-65-34 0-45 26-45 65 0 36 10 65 43 65" id="cj"/><path d="M88-194c31-1 46 15 58 34l-1-101h50l1 261h-48c-2-10 0-23-3-31C134-8 116 4 84 4 32 4 16-41 15-95c0-56 19-97 73-99zm17 164c33 0 40-30 41-66 1-37-9-64-41-64s-38 30-39 65c0 43 13 65 39 65" id="ck"/><path d="M85 4C-2 5 27-109 22-190h50c7 57-23 150 33 157 60-5 35-97 40-157h50l1 190h-47c-2-12 1-28-3-38-12 25-28 42-61 42" id="cl"/><path d="M190-63c-7 42-38 67-86 67-59 0-84-38-90-98-12-110 154-137 174-36l-49 2c-2-19-15-32-35-32-30 0-35 28-38 64-6 74 65 87 74 30" id="cm"/><path d="M185-48c-13 30-37 53-82 52C43 2 14-33 14-96s30-98 90-98c62 0 83 45 84 108H66c0 31 8 55 39 56 18 0 30-7 34-22zm-45-69c5-46-57-63-70-21-2 6-4 13-4 21h74" id="cn"/><g id="aC"><use transform="matrix(0.08641975308641976,0,0,0.08641975308641976,0,0)" xlink:href="#ch"/><use transform="matrix(0.08641975308641976,0,0,0.08641975308641976,20.740740740740744,0)" xlink:href="#ci"/><use transform="matrix(0.08641975308641976,0,0,0.08641975308641976,32.839506172839506,0)" xlink:href="#cj"/><use transform="matrix(0.08641975308641976,0,0,0.08641975308641976,51.76543209876543,0)" xlink:href="#ck"/><use transform="matrix(0.08641975308641976,0,0,0.08641975308641976,70.69135802469135,0)" xlink:href="#cl"/><use transform="matrix(0.08641975308641976,0,0,0.08641975308641976,89.61728395061728,0)" xlink:href="#cm"/><use transform="matrix(0.08641975308641976,0,0,0.08641975308641976,106.90123456790123,0)" xlink:href="#cn"/><use transform="matrix(0.08641975308641976,0,0,0.08641975308641976,124.18518518518518,0)" xlink:href="#ci"/></g><path d="M266 0h-40l-56-210L115 0H75L2-248h35L96-30l15-64 43-154h32l59 218 59-218h35" id="co"/><g id="aD"><use transform="matrix(0.05,0,0,0.05,0,0)" xlink:href="#co"/><use transform="matrix(0.05,0,0,0.05,16.3,0)" xlink:href="#bC"/><use transform="matrix(0.05,0,0,0.05,26.3,0)" xlink:href="#bv"/><use transform="matrix(0.05,0,0,0.05,30.25,0)" xlink:href="#bt"/><use transform="matrix(0.05,0,0,0.05,35.25,0)" xlink:href="#bw"/></g><g id="aE"><use transform="matrix(0.05,0,0,0.05,0,0)" xlink:href="#cb"/><use transform="matrix(0.05,0,0,0.05,5,0)" xlink:href="#bO"/><use transform="matrix(0.05,0,0,0.05,15,0)" xlink:href="#bu"/></g><g id="aF"><use transform="matrix(0.05,0,0,0.05,0,0)" xlink:href="#bV"/><use transform="matrix(0.05,0,0,0.05,10,0)" xlink:href="#bq"/><use transform="matrix(0.05,0,0,0.05,20,0)" xlink:href="#bC"/><use transform="matrix(0.05,0,0,0.05,30,0)" xlink:href="#bu"/><use transform="matrix(0.05,0,0,0.05,35.95,0)" xlink:href="#bt"/><use transform="matrix(0.05,0,0,0.05,40.95,0)" xlink:href="#bI"/><use transform="matrix(0.05,0,0,0.05,50.95,0)" xlink:href="#bq"/><use transform="matrix(0.05,0,0,0.05,60.95,0)" xlink:href="#bC"/><use transform="matrix(0.05,0,0,0.05,70.95,0)" xlink:href="#bt"/></g><g id="aG"><use transform="matrix(0.05,0,0,0.05,0,0)" xlink:href="#bq"/><use transform="matrix(0.05,0,0,0.05,10,0)" xlink:href="#bz"/><use transform="matrix(0.05,0,0,0.05,19,0)" xlink:href="#bq"/><use transform="matrix(0.05,0,0,0.05,29,0)" xlink:href="#bA"/><use transform="matrix(0.05,0,0,0.05,39,0)" xlink:href="#bt"/><use transform="matrix(0.05,0,0,0.05,44,0)" xlink:href="#bw"/></g><g id="aH"><use transform="matrix(0.05,0,0,0.05,0,0)" xlink:href="#bQ"/><use transform="matrix(0.05,0,0,0.05,12.950000000000001,0)" xlink:href="#bq"/><use transform="matrix(0.05,0,0,0.05,22.950000000000003,0)" xlink:href="#bs"/><use transform="matrix(0.05,0,0,0.05,37.900000000000006,0)" xlink:href="#bO"/><use transform="matrix(0.05,0,0,0.05,47.900000000000006,0)" xlink:href="#bt"/><use transform="matrix(0.05,0,0,0.05,52.900000000000006,0)" xlink:href="#bq"/></g><g id="aI"><use transform="matrix(0.05,0,0,0.05,0,0)" xlink:href="#bJ"/><use transform="matrix(0.05,0,0,0.05,9,0)" xlink:href="#bO"/><use transform="matrix(0.05,0,0,0.05,19,0)" xlink:href="#bA"/><use transform="matrix(0.05,0,0,0.05,29,0)" xlink:href="#bw"/><use transform="matrix(0.05,0,0,0.05,38,0)" xlink:href="#bt"/><use transform="matrix(0.05,0,0,0.05,43,0)" xlink:href="#bC"/><use transform="matrix(0.05,0,0,0.05,53,0)" xlink:href="#bA"/><use transform="matrix(0.05,0,0,0.05,63,0)" xlink:href="#bt"/><use transform="matrix(0.05,0,0,0.05,68,0)" xlink:href="#br"/><use transform="matrix(0.05,0,0,0.05,71.95,0)" xlink:href="#bS"/></g><g id="aJ"><use transform="matrix(0.05,0,0,0.05,0,0)" xlink:href="#bE"/><use transform="matrix(0.05,0,0,0.05,12,0)" xlink:href="#bq"/><use transform="matrix(0.05,0,0,0.05,22,0)" xlink:href="#bA"/><use transform="matrix(0.05,0,0,0.05,32,0)" xlink:href="#bP"/><use transform="matrix(0.05,0,0,0.05,42,0)" xlink:href="#bw"/></g><path d="M153-248C145-148 188 4 80 4 36 3 13-21 6-62l32-5c4 25 16 42 43 43 27 0 39-20 39-49v-147H72v-28h81" id="cp"/><path d="M140-251c81 0 123 46 123 126C263-46 219 4 140 4 59 4 17-45 17-125s42-126 123-126zm0 227c63 0 89-41 89-101s-29-99-89-99c-61 0-89 39-89 99S79-25 140-24" id="cq"/><path d="M190 0L58-211 59 0H30v-248h39L202-35l-2-213h31V0h-41" id="cr"/><g id="aK"><use transform="matrix(0.05,0,0,0.05,0,0)" xlink:href="#cp"/><use transform="matrix(0.05,0,0,0.05,9,0)" xlink:href="#bE"/><use transform="matrix(0.05,0,0,0.05,21,0)" xlink:href="#cq"/><use transform="matrix(0.05,0,0,0.05,35,0)" xlink:href="#cr"/></g><g id="aL"><use transform="matrix(0.05,0,0,0.05,0,0)" xlink:href="#bW"/><use transform="matrix(0.05,0,0,0.05,12.950000000000001,0)" xlink:href="#bv"/><use transform="matrix(0.05,0,0,0.05,16.900000000000002,0)" xlink:href="#bt"/><use transform="matrix(0.05,0,0,0.05,21.900000000000002,0)" xlink:href="#bV"/></g><path d="M141 0L90-78 38 0H4l68-98-65-92h35l48 74 47-74h35l-64 92 68 98h-35" id="cs"/><g id="aM"><use transform="matrix(0.05,0,0,0.05,0,0)" xlink:href="#cb"/><use transform="matrix(0.05,0,0,0.05,5,0)" xlink:href="#bv"/><use transform="matrix(0.05,0,0,0.05,8.95,0)" xlink:href="#cs"/><use transform="matrix(0.05,0,0,0.05,17.95,0)" xlink:href="#bq"/><use transform="matrix(0.05,0,0,0.05,27.950000000000003,0)" xlink:href="#bP"/></g><g id="aN"><use transform="matrix(0.05,0,0,0.05,0,0)" xlink:href="#bw"/><use transform="matrix(0.05,0,0,0.05,9,0)" xlink:href="#bJ"/><use transform="matrix(0.05,0,0,0.05,18,0)" xlink:href="#bV"/><use transform="matrix(0.05,0,0,0.05,28,0)" xlink:href="#bq"/><use transform="matrix(0.05,0,0,0.05,38,0)" xlink:href="#bs"/><use transform="matrix(0.05,0,0,0.05,52.95,0)" xlink:href="#bC"/></g><g id="aO"><use transform="matrix(0.05,0,0,0.05,0,0)" xlink:href="#bM"/><use transform="matrix(0.05,0,0,0.05,10,0)" xlink:href="#bw"/><use transform="matrix(0.05,0,0,0.05,19,0)" xlink:href="#bv"/><use transform="matrix(0.05,0,0,0.05,22.95,0)" xlink:href="#bA"/><use transform="matrix(0.05,0,0,0.05,32.95,0)" xlink:href="#bD"/></g><path d="M111-194c62-3 86 47 72 106H45c-7 38 6 69 45 68 27-1 43-14 53-32l24 11C152-15 129 4 87 4 38 3 12-23 12-71c0-70 32-119 99-123zm44 81c14-66-71-72-95-28-4 8-8 17-11 28h106" id="ct"/><path d="M68-162c25-46 127-43 121 31C183-60 169 1 98 4 69 5 53-11 43-31L36 0H5l52-261h31zm88 36c2-27-9-43-34-43-55 0-70 51-70 103 0 29 15 45 43 46 52 0 58-58 61-106" id="cu"/><path d="M44-68c0 29 11 47 38 47 30 0 42-19 51-41l28 9C148-21 126 4 82 4 31 4 10-29 12-85c3-77 74-140 146-93 12 8 15 23 18 40l-31 5c-1-22-13-36-36-36-52 0-65 49-65 101" id="cv"/><path d="M127 0L80-88 50-66 37 0H6l51-261h31L57-100l99-90h39l-93 82L161 0h-34" id="cw"/><path d="M51-54c-9 22 5 41 31 30L79-1C43 14 10-4 19-52l22-115H19l5-23h22l19-43h21l-9 43h35l-4 23H73" id="cx"/><g id="aP"><use transform="matrix(0.05,0,0,0.05,0,0)" xlink:href="#cg"/><use transform="matrix(0.05,0,0,0.05,12.950000000000001,0)" xlink:href="#ct"/><use transform="matrix(0.05,0,0,0.05,22.950000000000003,0)" xlink:href="#cu"/><use transform="matrix(0.05,0,0,0.05,32.95,0)" xlink:href="#cd"/><use transform="matrix(0.05,0,0,0.05,41.95,0)" xlink:href="#cf"/><use transform="matrix(0.05,0,0,0.05,51.95,0)" xlink:href="#cv"/><use transform="matrix(0.05,0,0,0.05,60.95,0)" xlink:href="#cw"/><use transform="matrix(0.05,0,0,0.05,69.95,0)" xlink:href="#ct"/><use transform="matrix(0.05,0,0,0.05,79.95,0)" xlink:href="#cx"/></g><g id="aQ"><use transform="matrix(0.05,0,0,0.05,0,0)" xlink:href="#br"/><use transform="matrix(0.05,0,0,0.05,3.95,0)" xlink:href="#bv"/><use transform="matrix(0.05,0,0,0.05,7.9,0)" xlink:href="#bI"/><use transform="matrix(0.05,0,0,0.05,17.9,0)" xlink:href="#bu"/><use transform="matrix(0.05,0,0,0.05,23.849999999999998,0)" xlink:href="#bC"/><use transform="matrix(0.05,0,0,0.05,33.849999999999994,0)" xlink:href="#bu"/><use transform="matrix(0.05,0,0,0.05,39.8,0)" xlink:href="#bS"/></g><g id="aR"><use transform="matrix(0.05,0,0,0.05,0,0)" xlink:href="#bJ"/><use transform="matrix(0.05,0,0,0.05,9,0)" xlink:href="#bO"/><use transform="matrix(0.05,0,0,0.05,19,0)" xlink:href="#bs"/><use transform="matrix(0.05,0,0,0.05,33.95,0)" xlink:href="#bs"/><use transform="matrix(0.05,0,0,0.05,48.900000000000006,0)" xlink:href="#bC"/><use transform="matrix(0.05,0,0,0.05,58.900000000000006,0)" xlink:href="#bA"/><use transform="matrix(0.05,0,0,0.05,68.9,0)" xlink:href="#bP"/></g><g id="aS"><use transform="matrix(0.05,0,0,0.05,0,0)" xlink:href="#bK"/><use transform="matrix(0.05,0,0,0.05,10,0)" xlink:href="#bC"/><use transform="matrix(0.05,0,0,0.05,20,0)" xlink:href="#bu"/><use transform="matrix(0.05,0,0,0.05,25.950000000000003,0)" xlink:href="#bC"/><use transform="matrix(0.05,0,0,0.05,35.95,0)" xlink:href="#bs"/><use transform="matrix(0.05,0,0,0.05,50.900000000000006,0)" xlink:href="#bq"/><use transform="matrix(0.05,0,0,0.05,60.900000000000006,0)" xlink:href="#bt"/><use transform="matrix(0.05,0,0,0.05,65.9,0)" xlink:href="#bq"/><use transform="matrix(0.05,0,0,0.05,75.9,0)" xlink:href="#bu"/><use transform="matrix(0.05,0,0,0.05,81.85000000000001,0)" xlink:href="#bw"/></g><g id="aT"><use transform="matrix(0.05,0,0,0.05,0,0)" xlink:href="#bC"/><use transform="matrix(0.05,0,0,0.05,10,0)" xlink:href="#bJ"/><use transform="matrix(0.05,0,0,0.05,19,0)" xlink:href="#bJ"/><use transform="matrix(0.05,0,0,0.05,28,0)" xlink:href="#bO"/><use transform="matrix(0.05,0,0,0.05,38,0)" xlink:href="#bu"/><use transform="matrix(0.05,0,0,0.05,43.95,0)" xlink:href="#bP"/><use transform="matrix(0.05,0,0,0.05,53.95,0)" xlink:href="#bv"/><use transform="matrix(0.05,0,0,0.05,57.900000000000006,0)" xlink:href="#bA"/><use transform="matrix(0.05,0,0,0.05,67.9,0)" xlink:href="#bD"/></g><g id="aU"><use transform="matrix(0.05,0,0,0.05,0,0)" xlink:href="#cp"/><use transform="matrix(0.05,0,0,0.05,9,0)" xlink:href="#bE"/><use transform="matrix(0.05,0,0,0.05,21,0)" xlink:href="#cq"/><use transform="matrix(0.05,0,0,0.05,35,0)" xlink:href="#cr"/></g><g id="aV"><use transform="matrix(0.05,0,0,0.05,0,0)" xlink:href="#bw"/><use transform="matrix(0.05,0,0,0.05,9,0)" xlink:href="#bJ"/><use transform="matrix(0.05,0,0,0.05,18,0)" xlink:href="#bV"/><use transform="matrix(0.05,0,0,0.05,28,0)" xlink:href="#bq"/><use transform="matrix(0.05,0,0,0.05,38,0)" xlink:href="#bs"/><use transform="matrix(0.05,0,0,0.05,52.95,0)" xlink:href="#bC"/></g><path d="M33 0v-248h34V0H33" id="cy"/><g id="aW"><use transform="matrix(0.05,0,0,0.05,0,0)" xlink:href="#cy"/><use transform="matrix(0.05,0,0,0.05,5,0)" xlink:href="#bA"/><use transform="matrix(0.05,0,0,0.05,15,0)" xlink:href="#bv"/><use transform="matrix(0.05,0,0,0.05,18.95,0)" xlink:href="#bt"/><use transform="matrix(0.05,0,0,0.05,23.95,0)" xlink:href="#bv"/><use transform="matrix(0.05,0,0,0.05,27.899999999999995,0)" xlink:href="#bC"/><use transform="matrix(0.05,0,0,0.05,37.9,0)" xlink:href="#br"/></g><g id="aX"><use transform="matrix(0.05,0,0,0.05,0,0)" xlink:href="#bE"/><use transform="matrix(0.05,0,0,0.05,12,0)" xlink:href="#bt"/><use transform="matrix(0.05,0,0,0.05,17,0)" xlink:href="#bC"/><use transform="matrix(0.05,0,0,0.05,27,0)" xlink:href="#bt"/><use transform="matrix(0.05,0,0,0.05,32,0)" xlink:href="#bq"/></g><g id="aY"><use transform="matrix(0.05,0,0,0.05,0,0)" xlink:href="#by"/><use transform="matrix(0.05,0,0,0.05,12,0)" xlink:href="#cs"/><use transform="matrix(0.05,0,0,0.05,21,0)" xlink:href="#bt"/><use transform="matrix(0.05,0,0,0.05,26,0)" xlink:href="#bu"/><use transform="matrix(0.05,0,0,0.05,31.950000000000003,0)" xlink:href="#bC"/><use transform="matrix(0.05,0,0,0.05,41.95,0)" xlink:href="#bJ"/><use transform="matrix(0.05,0,0,0.05,50.95,0)" xlink:href="#bt"/><use transform="matrix(0.05,0,0,0.05,55.95,0)" xlink:href="#bw"/></g><g id="aZ"><use transform="matrix(0.05,0,0,0.05,0,0)" xlink:href="#br"/><use transform="matrix(0.05,0,0,0.05,3.95,0)" xlink:href="#bC"/><use transform="matrix(0.05,0,0,0.05,13.949999999999998,0)" xlink:href="#bw"/><use transform="matrix(0.05,0,0,0.05,22.95,0)" xlink:href="#bt"/></g><g id="ba"><use transform="matrix(0.05,0,0,0.05,0,0)" xlink:href="#bq"/><use transform="matrix(0.05,0,0,0.05,10,0)" xlink:href="#bz"/><use transform="matrix(0.05,0,0,0.05,19,0)" xlink:href="#bq"/><use transform="matrix(0.05,0,0,0.05,29,0)" xlink:href="#bA"/><use transform="matrix(0.05,0,0,0.05,39,0)" xlink:href="#bt"/></g><g id="bb"><use transform="matrix(0.05,0,0,0.05,0,0)" xlink:href="#bP"/><use transform="matrix(0.05,0,0,0.05,10,0)" xlink:href="#bC"/><use transform="matrix(0.05,0,0,0.05,20,0)" xlink:href="#bt"/><use transform="matrix(0.05,0,0,0.05,25,0)" xlink:href="#bC"/></g><g id="bc"><use transform="matrix(0.05,0,0,0.05,0,0)" xlink:href="#bQ"/><use transform="matrix(0.05,0,0,0.05,12.950000000000001,0)" xlink:href="#bq"/><use transform="matrix(0.05,0,0,0.05,22.950000000000003,0)" xlink:href="#bY"/><use transform="matrix(0.05,0,0,0.05,32.95,0)" xlink:href="#bM"/><use transform="matrix(0.05,0,0,0.05,42.95,0)" xlink:href="#bq"/><use transform="matrix(0.05,0,0,0.05,52.95,0)" xlink:href="#bw"/><use transform="matrix(0.05,0,0,0.05,61.95,0)" xlink:href="#bt"/><use transform="matrix(0.05,0,0,0.05,66.95,0)" xlink:href="#bw"/></g><g id="bd"><use transform="matrix(0.05,0,0,0.05,0,0)" xlink:href="#bv"/><use transform="matrix(0.05,0,0,0.05,3.95,0)" xlink:href="#bA"/><use transform="matrix(0.05,0,0,0.05,13.949999999999998,0)" xlink:href="#bv"/><use transform="matrix(0.05,0,0,0.05,17.9,0)" xlink:href="#bt"/><use transform="matrix(0.05,0,0,0.05,22.9,0)" xlink:href="#bv"/><use transform="matrix(0.05,0,0,0.05,26.849999999999994,0)" xlink:href="#bC"/><use transform="matrix(0.05,0,0,0.05,36.849999999999994,0)" xlink:href="#br"/></g><g id="be"><use transform="matrix(0.05,0,0,0.05,0,0)" xlink:href="#bw"/><use transform="matrix(0.05,0,0,0.05,9,0)" xlink:href="#bt"/><use transform="matrix(0.05,0,0,0.05,14,0)" xlink:href="#bC"/><use transform="matrix(0.05,0,0,0.05,24,0)" xlink:href="#bt"/><use transform="matrix(0.05,0,0,0.05,29,0)" xlink:href="#bq"/></g><g id="bf"><use transform="matrix(0.05,0,0,0.05,0,0)" xlink:href="#bC"/><use transform="matrix(0.05,0,0,0.05,10,0)" xlink:href="#cb"/><use transform="matrix(0.05,0,0,0.05,15,0)" xlink:href="#bt"/><use transform="matrix(0.05,0,0,0.05,20,0)" xlink:href="#bq"/><use transform="matrix(0.05,0,0,0.05,30,0)" xlink:href="#bu"/></g><use transform="matrix(0.05,0,0,0.05,0,0)" xlink:href="#bC" id="bg"/><g id="bh"><use transform="matrix(0.05,0,0,0.05,0,0)" xlink:href="#bJ"/><use transform="matrix(0.05,0,0,0.05,9,0)" xlink:href="#br"/><use transform="matrix(0.05,0,0,0.05,12.949999999999998,0)" xlink:href="#bv"/><use transform="matrix(0.05,0,0,0.05,16.9,0)" xlink:href="#bq"/><use transform="matrix(0.05,0,0,0.05,26.899999999999995,0)" xlink:href="#bA"/><use transform="matrix(0.05,0,0,0.05,36.9,0)" xlink:href="#bt"/></g><g id="bi"><use transform="matrix(0.05,0,0,0.05,0,0)" xlink:href="#bw"/><use transform="matrix(0.05,0,0,0.05,9,0)" xlink:href="#bM"/><use transform="matrix(0.05,0,0,0.05,19,0)" xlink:href="#bI"/><use transform="matrix(0.05,0,0,0.05,29,0)" xlink:href="#bw"/><use transform="matrix(0.05,0,0,0.05,38,0)" xlink:href="#bJ"/><use transform="matrix(0.05,0,0,0.05,47,0)" xlink:href="#bu"/><use transform="matrix(0.05,0,0,0.05,52.95,0)" xlink:href="#bv"/><use transform="matrix(0.05,0,0,0.05,56.900000000000006,0)" xlink:href="#bI"/><use transform="matrix(0.05,0,0,0.05,66.9,0)" xlink:href="#bq"/></g><g id="bj"><use transform="matrix(0.05,0,0,0.05,0,0)" xlink:href="#bN"/><use transform="matrix(0.05,0,0,0.05,12.950000000000001,0)" xlink:href="#bC"/><use transform="matrix(0.05,0,0,0.05,22.950000000000003,0)" xlink:href="#br"/><use transform="matrix(0.05,0,0,0.05,26.900000000000002,0)" xlink:href="#br"/><use transform="matrix(0.05,0,0,0.05,30.85,0)" xlink:href="#bw"/></g><g id="bk"><use transform="matrix(0.05,0,0,0.05,0,0)" xlink:href="#bK"/><use transform="matrix(0.05,0,0,0.05,10,0)" xlink:href="#bu"/><use transform="matrix(0.05,0,0,0.05,15.949999999999998,0)" xlink:href="#bO"/><use transform="matrix(0.05,0,0,0.05,25.950000000000003,0)" xlink:href="#bP"/><use transform="matrix(0.05,0,0,0.05,35.95,0)" xlink:href="#bM"/><use transform="matrix(0.05,0,0,0.05,45.95,0)" xlink:href="#bJ"/><use transform="matrix(0.05,0,0,0.05,54.95,0)" xlink:href="#bq"/><use transform="matrix(0.05,0,0,0.05,64.95,0)" xlink:href="#bu"/></g><path d="M-5 72V49h209v23H-5" id="cz"/><g id="bl"><use transform="matrix(0.05,0,0,0.05,0,0)" xlink:href="#bO"/><use transform="matrix(0.05,0,0,0.05,10,0)" xlink:href="#bA"/><use transform="matrix(0.05,0,0,0.05,20,0)" xlink:href="#cz"/><use transform="matrix(0.05,0,0,0.05,30,0)" xlink:href="#bW"/><use transform="matrix(0.05,0,0,0.05,42.95,0)" xlink:href="#bw"/><use transform="matrix(0.05,0,0,0.05,51.95,0)" xlink:href="#cz"/><use transform="matrix(0.05,0,0,0.05,61.95,0)" xlink:href="#bs"/><use transform="matrix(0.05,0,0,0.05,76.9,0)" xlink:href="#bq"/><use transform="matrix(0.05,0,0,0.05,86.9,0)" xlink:href="#bw"/><use transform="matrix(0.05,0,0,0.05,95.9,0)" xlink:href="#bw"/><use transform="matrix(0.05,0,0,0.05,104.9,0)" xlink:href="#bC"/><use transform="matrix(0.05,0,0,0.05,114.9,0)" xlink:href="#bD"/><use transform="matrix(0.05,0,0,0.05,124.9,0)" xlink:href="#bq"/></g><g id="bm"><use transform="matrix(0.05,0,0,0.05,0,0)" xlink:href="#bt"/><use transform="matrix(0.05,0,0,0.05,5,0)" xlink:href="#bO"/></g><g id="bn"><use transform="matrix(0.05,0,0,0.05,0,0)" xlink:href="#bO"/><use transform="matrix(0.05,0,0,0.05,10,0)" xlink:href="#bI"/><use transform="matrix(0.05,0,0,0.05,20,0)" xlink:href="#bt"/><use transform="matrix(0.05,0,0,0.05,25,0)" xlink:href="#bC"/><use transform="matrix(0.05,0,0,0.05,35,0)" xlink:href="#bv"/><use transform="matrix(0.05,0,0,0.05,38.95,0)" xlink:href="#bA"/></g><g id="bo"><use transform="matrix(0.05,0,0,0.05,0,0)" xlink:href="#bv"/><use transform="matrix(0.05,0,0,0.05,3.95,0)" xlink:href="#bA"/><use transform="matrix(0.05,0,0,0.05,13.949999999999998,0)" xlink:href="#bv"/><use transform="matrix(0.05,0,0,0.05,17.9,0)" xlink:href="#bt"/><use transform="matrix(0.05,0,0,0.05,22.9,0)" xlink:href="#bv"/><use transform="matrix(0.05,0,0,0.05,26.849999999999994,0)" xlink:href="#bC"/><use transform="matrix(0.05,0,0,0.05,36.849999999999994,0)" xlink:href="#br"/><use transform="matrix(0.05,0,0,0.05,40.8,0)" xlink:href="#cz"/><use transform="matrix(0.05,0,0,0.05,50.8,0)" xlink:href="#bw"/><use transform="matrix(0.05,0,0,0.05,59.79999999999999,0)" xlink:href="#bt"/><use transform="matrix(0.05,0,0,0.05,64.8,0)" xlink:href="#bC"/><use transform="matrix(0.05,0,0,0.05,74.8,0)" xlink:href="#bt"/><use transform="matrix(0.05,0,0,0.05,79.8,0)" xlink:href="#bq"/></g></defs></g></svg>