<svg xmlns="http://www.w3.org/2000/svg" xmlns:xlink="http://www.w3.org/1999/xlink" xmlns:lucid="lucid" width="980" height="468.35"><g transform="translate(0 20)" lucid:page-tab-id="0_0"><path d="M460 184.17h160v60H460z" stroke="#000" stroke-width="2" fill="#fff"/><use xlink:href="#a" transform="matrix(1,0,0,1,465,189.1732283464567) translate(38.55 30.025)"/><path d="M800 184.17h160v60H800z" stroke="#000" stroke-width="2" fill="#fff"/><use xlink:href="#b" transform="matrix(1,0,0,1,805,189.1732283464567) translate(39.55 30.025)"/><path d="M20 184.17h160v60H20z" stroke="#000" stroke-width="2" fill="#fff"/><use xlink:href="#c" transform="matrix(1,0,0,1,25,189.1732283464567) translate(58 30.025)"/><path d="M658.55 215.17H622v-2h36.55zm121.95 0h-19.05v-2h19.05z"/><path d="M622.03 215.17H621v-2h1.03zM795.76 214.17l-14.26 4.64v-9.26z"/><path d="M799 214.17l-18.5 6v-12zm-16.5 3.26l10.03-3.26-10.03-3.26z"/><use xlink:href="#d" transform="matrix(1,0,0,1,658.55,184.57322834645672) translate(0 14.4)"/><use xlink:href="#e" transform="matrix(1,0,0,1,658.55,184.57322834645672) translate(56 14.4)"/><use xlink:href="#f" transform="matrix(1,0,0,1,658.55,184.57322834645672) translate(0 36)"/><use xlink:href="#g" transform="matrix(1,0,0,1,658.55,184.57322834645672) translate(40 36)"/><use xlink:href="#h" transform="matrix(1,0,0,1,658.55,184.57322834645672) translate(0 53.866666666666674)"/><path d="M480 0h100v60c-16.7-10.02-27.1-10.02-33.4-10.02-10 0-23.3 10.02-33.3 10.02-6.2 0-16.7 0-33.3-10.02z" stroke="#000" stroke-width="2" fill="#fff"/><use xlink:href="#i" transform="matrix(1,0,0,1,485,5) translate(2.049999999999997 24.4)"/><path d="M255.05 215.17H199.5v-2h55.55zm202.95 0h-73.05v-2H458z"/><path d="M459 215.17h-1.03v-2H459zM198.5 218.8l-14.26-4.63 14.26-4.63z"/><path d="M199.5 220.18l-18.5-6 18.5-6.02zm-12.03-6l10.03 3.25v-6.52z"/><use xlink:href="#j" transform="matrix(1,0,0,1,255.05,192.57322834645672) translate(0 14.4)"/><use xlink:href="#k" transform="matrix(1,0,0,1,255.05,192.57322834645672) translate(43 14.4)"/><use xlink:href="#l" transform="matrix(1,0,0,1,255.05,192.57322834645672) translate(94.9 14.4)"/><use xlink:href="#m" transform="matrix(1,0,0,1,255.05,192.57322834645672) translate(0 36)"/><use xlink:href="#n" transform="matrix(1,0,0,1,255.05,192.57322834645672) translate(36.900000000000006 36)"/><use xlink:href="#o" transform="matrix(1,0,0,1,255.05,192.57322834645672) translate(88.80000000000001 36)"/><path d="M706.23 133.1l5.05.24 5.03.46 5.03.67 5 .88 4.96 1.1 4.92 1.3 4.9 1.5 4.83 1.73 4.78 1.93 4.72 2.15 4.66 2.35 4.6 2.57 4.5 2.77 4.42 2.98 4.33 3.2 4.23 3.4 4.13 3.6 4.03 3.84 3.9 4.04 3.8 4.27 3 3.7-1.54 1.26-3-3.67-3.73-4.2-3.85-3.98-3.96-3.78-4.06-3.56-4.17-3.35-4.26-3.15-4.35-2.93-4.44-2.73-4.5-2.53-4.6-2.3-4.64-2.12-4.7-1.9-4.76-1.7-4.8-1.5-4.86-1.27-4.88-1.07-4.9-.85-4.95-.66-4.96-.46-4.97-.25-4.97-.04-4.97.17-4.98.4-4.97.58-4.96.8-4.94 1.03-4.93 1.23-4.9 1.45-4.9 1.67-4.87 1.9-4.84 2.1-4.8 2.35-4.8 2.6-4.74 2.82-4.72 3.1-4.68 3.34-4.65 3.63-4.6 3.93-2.6 2.4-1.36-1.46 2.62-2.43 4.67-3.98 4.7-3.68 4.75-3.4 4.8-3.13 4.8-2.88 4.86-2.63 4.9-2.38 4.92-2.15 4.94-1.9 4.97-1.7 5-1.47 5-1.25 5.03-1.03 5.04-.82 5.06-.6 5.05-.4 5.07-.17z"/><path d="M802.2 183.17h-2.6l-.12-.16 1.55-1.26zM618.34 173.72l-13.2 7.1 6.5-13.5z"/><path d="M620.03 173.95l-17.13 9.22 8.43-17.53zm-12.66 4.54l9.3-5-4.73-4.5z"/><use xlink:href="#d" transform="matrix(1,0,0,1,732.3398874045135,88.84186527282617) translate(0.009999999999990905 14.4)"/><use xlink:href="#p" transform="matrix(1,0,0,1,732.3398874045135,88.84186527282617) translate(56.00999999999999 14.4)"/><use xlink:href="#q" transform="matrix(1,0,0,1,732.3398874045135,88.84186527282617) translate(24.059999999999988 36)"/><use xlink:href="#r" transform="matrix(1,0,0,1,732.3398874045135,88.84186527282617) translate(119.91 36)"/><use xlink:href="#h" transform="matrix(1,0,0,1,732.3398874045135,88.84186527282617) translate(56.50259259259256 53.866666666666674)"/><path d="M606.43 248.8l2.3 3.88 2.46 3.7 2.62 3.56 2.8 3.43 3 3.3 3.2 3.17 3.42 3.08 3.66 2.96 3.92 2.87 4.2 2.76 4.52 2.66.9.45v2.27l-1.86-.96-4.6-2.7-4.3-2.8-4-2.93-3.74-3.03-3.5-3.14-3.26-3.25-3.07-3.38-2.86-3.5-2.7-3.64-2.5-3.8-2.36-3.96-1.7-3.24 1.76-.94zm184.72 12.45l-.6.84-4.02 5.04-3.36 3.8h-2.73l.7-.72 3.86-4.37 3.95-4.97.57-.8z"/><path d="M604.75 245.62l-1.77.93-.72-1.38h2.26zM794.76 262.37l-7.77-5.05 11.65-9.43z"/><path d="M795.36 263.96l-10.07-6.56 15.12-12.23zm-6.68-6.73l5.47 3.55 2.74-10.18z"/><use xlink:href="#d" transform="matrix(1,0,0,1,643.4258917080124,270.9515857300974) translate(0 14.4)"/><use xlink:href="#s" transform="matrix(1,0,0,1,643.4258917080124,270.9515857300974) translate(56 14.4)"/><use xlink:href="#t" transform="matrix(1,0,0,1,643.4258917080124,270.9515857300974) translate(0 36)"/><use xlink:href="#h" transform="matrix(1,0,0,1,643.4258917080124,270.9515857300974) translate(0 53.866666666666674)"/><path d="M460 358.27h100v70.08c-16.7-11.7-27.1-11.7-33.4-11.7-10 0-23.3 11.7-33.3 11.7-6.2 0-16.7 0-33.3-11.7z" stroke="#000" stroke-width="2" fill="#fff"/><g><use xlink:href="#u" transform="matrix(1,0,0,1,465,363.2664566929033) translate(-0.42500000000000426 17.299999999999997)"/><use xlink:href="#v" transform="matrix(1,0,0,1,465,363.2664566929033) translate(8.25 38.9)"/></g><path d="M541.02 182.2l-2-.05.8-41.76h2zm-4.17-107.75l1.73 7.4 1.37 7.17 1.07 7.2.1.97h-2l-.1-.72-1.04-7.13-1.35-7.1-1.72-7.3-.34-1.26 1.93-.55z"/><path d="M541.02 182.17l-.02 1h-2l.02-1.04zM539.65 71.08l-8.85 2.77.17-15z"/><path d="M541.26 71.63l-11.47 3.6.2-19.47zm-9.44.86l6.22-1.96-6.1-8.6z"/><g><use xlink:href="#w" transform="matrix(1,0,0,1,453.8223289871603,97.19144446275808) translate(0 14.4)"/><use xlink:href="#x" transform="matrix(1,0,0,1,453.8223289871603,97.19144446275808) translate(67.9 14.4)"/><use xlink:href="#y" transform="matrix(1,0,0,1,453.8223289871603,97.19144446275808) translate(0 36)"/><use xlink:href="#z" transform="matrix(1,0,0,1,453.8223289871603,97.19144446275808) translate(76.9 36)"/><use xlink:href="#A" transform="matrix(1,0,0,1,453.8223289871603,97.19144446275808) translate(159.8 36)"/></g><path d="M515.68 324.17l-1.12 3.75-.97 3.87-.84 4.1-.5 3.08-1.96-.3.5-3.14.84-4.2 1-3.95 1.14-3.85.25-.72h2.12zm25.3-77.97l-.12 5.5-.38 5.65-.56 5.02-.7 4.53-.86 4.2-1 3.95-1.14 3.83-.26.75h-2.1l.46-1.36 1.12-3.75.97-3.87.84-4.1.7-4.45.55-4.92.36-5.57.12-5.45z"/><path d="M540.98 246.22l-2-.04.02-1h2zM515.84 340.13l-5.6 13.9-3.65-14.55z"/><path d="M517.28 339.23L510 357.27l-4.7-18.88zm-6.83 11.58l3.95-9.77-6.5-.45z"/><g><use xlink:href="#B" transform="matrix(1,0,0,1,436.1421893655536,279.6296446652179) translate(0 14.4)"/><use xlink:href="#C" transform="matrix(1,0,0,1,436.1421893655536,279.6296446652179) translate(0 36)"/><use xlink:href="#D" transform="matrix(1,0,0,1,436.1421893655536,279.6296446652179) translate(134.8 36)"/></g><defs><path d="M30-248c87 1 191-15 191 75 0 78-77 80-158 76V0H30v-248zm33 125c57 0 124 11 124-50 0-59-68-47-124-48v98" id="E"/><path d="M114-163C36-179 61-72 57 0H25l-1-190h30c1 12-1 29 2 39 6-27 23-49 58-41v29" id="F"/><path d="M100-194c62-1 85 37 85 99 1 63-27 99-86 99S16-35 15-95c0-66 28-99 85-99zM99-20c44 1 53-31 53-75 0-43-8-75-51-75s-53 32-53 75 10 74 51 75" id="G"/><path d="M85-194c31 0 48 13 60 33l-1-100h32l1 261h-30c-2-10 0-23-3-31C134-8 116 4 85 4 32 4 16-35 15-94c0-66 23-100 70-100zm9 24c-40 0-46 34-46 75 0 40 6 74 45 74 42 0 51-32 51-76 0-42-9-74-50-73" id="H"/><path d="M84 4C-5 8 30-112 23-190h32v120c0 31 7 50 39 49 72-2 45-101 50-169h31l1 190h-30c-1-10 1-25-2-33-11 22-28 36-60 37" id="I"/><path d="M96-169c-40 0-48 33-48 73s9 75 48 75c24 0 41-14 43-38l32 2c-6 37-31 61-74 61-59 0-76-41-82-99-10-93 101-131 147-64 4 7 5 14 7 22l-32 3c-4-21-16-35-41-35" id="J"/><path d="M100-194c63 0 86 42 84 106H49c0 40 14 67 53 68 26 1 43-12 49-29l28 8c-11 28-37 45-77 45C44 4 14-33 15-96c1-61 26-98 85-98zm52 81c6-60-76-77-97-28-3 7-6 17-6 28h103" id="K"/><g id="a"><use transform="matrix(0.05,0,0,0.05,0,0)" xlink:href="#E"/><use transform="matrix(0.05,0,0,0.05,12,0)" xlink:href="#F"/><use transform="matrix(0.05,0,0,0.05,17.95,0)" xlink:href="#G"/><use transform="matrix(0.05,0,0,0.05,27.950000000000003,0)" xlink:href="#H"/><use transform="matrix(0.05,0,0,0.05,37.95,0)" xlink:href="#I"/><use transform="matrix(0.05,0,0,0.05,47.95,0)" xlink:href="#J"/><use transform="matrix(0.05,0,0,0.05,56.95,0)" xlink:href="#K"/><use transform="matrix(0.05,0,0,0.05,66.95,0)" xlink:href="#F"/></g><path d="M240 0l2-218c-23 76-54 145-80 218h-23L58-218 59 0H30v-248h44l77 211c21-75 51-140 76-211h43V0h-30" id="L"/><path d="M141-36C126-15 110 5 73 4 37 3 15-17 15-53c-1-64 63-63 125-63 3-35-9-54-41-54-24 1-41 7-42 31l-33-3c5-37 33-52 76-52 45 0 72 20 72 64v82c-1 20 7 32 28 27v20c-31 9-61-2-59-35zM48-53c0 20 12 33 32 33 41-3 63-29 60-74-43 2-92-5-92 41" id="M"/><path d="M117-194c89-4 53 116 60 194h-32v-121c0-31-8-49-39-48C34-167 62-67 57 0H25l-1-190h30c1 10-1 24 2 32 11-22 29-35 61-36" id="N"/><path d="M177-190C167-65 218 103 67 71c-23-6-38-20-44-43l32-5c15 47 100 32 89-28v-30C133-14 115 1 83 1 29 1 15-40 15-95c0-56 16-97 71-98 29-1 48 16 59 35 1-10 0-23 2-32h30zM94-22c36 0 50-32 50-73 0-42-14-75-50-75-39 0-46 34-46 75s6 73 46 73" id="O"/><g id="b"><use transform="matrix(0.05,0,0,0.05,0,0)" xlink:href="#L"/><use transform="matrix(0.05,0,0,0.05,14.950000000000001,0)" xlink:href="#M"/><use transform="matrix(0.05,0,0,0.05,24.950000000000003,0)" xlink:href="#N"/><use transform="matrix(0.05,0,0,0.05,34.95,0)" xlink:href="#M"/><use transform="matrix(0.05,0,0,0.05,44.95,0)" xlink:href="#O"/><use transform="matrix(0.05,0,0,0.05,54.95,0)" xlink:href="#K"/><use transform="matrix(0.05,0,0,0.05,64.95,0)" xlink:href="#F"/></g><path d="M185-189c-5-48-123-54-124 2 14 75 158 14 163 119 3 78-121 87-175 55-17-10-28-26-33-46l33-7c5 56 141 63 141-1 0-78-155-14-162-118-5-82 145-84 179-34 5 7 8 16 11 25" id="P"/><path d="M205 0l-28-72H64L36 0H1l101-248h38L239 0h-34zm-38-99l-47-123c-12 45-31 82-46 123h93" id="Q"/><path d="M30 0v-248h33v221h125V0H30" id="R"/><g id="c"><use transform="matrix(0.05,0,0,0.05,0,0)" xlink:href="#P"/><use transform="matrix(0.05,0,0,0.05,12,0)" xlink:href="#Q"/><use transform="matrix(0.05,0,0,0.05,24,0)" xlink:href="#R"/></g><path d="M135-143c-3-34-86-38-87 0 15 53 115 12 119 90S17 21 10-45l28-5c4 36 97 45 98 0-10-56-113-15-118-90-4-57 82-63 122-42 12 7 21 19 24 35" id="S"/><g id="d"><use transform="matrix(0.05,0,0,0.05,0,0)" xlink:href="#P"/><use transform="matrix(0.05,0,0,0.05,12,0)" xlink:href="#K"/><use transform="matrix(0.05,0,0,0.05,22,0)" xlink:href="#N"/><use transform="matrix(0.05,0,0,0.05,32,0)" xlink:href="#H"/><use transform="matrix(0.05,0,0,0.05,42,0)" xlink:href="#S"/></g><path d="M212-179c-10-28-35-45-73-45-59 0-87 40-87 99 0 60 29 101 89 101 43 0 62-24 78-52l27 14C228-24 195 4 139 4 59 4 22-46 18-125c-6-104 99-153 187-111 19 9 31 26 39 46" id="T"/><g id="e"><use transform="matrix(0.05,0,0,0.05,0,0)" xlink:href="#T"/><use transform="matrix(0.05,0,0,0.05,12.950000000000001,0)" xlink:href="#P"/><use transform="matrix(0.05,0,0,0.05,24.950000000000003,0)" xlink:href="#T"/><use transform="matrix(0.05,0,0,0.05,37.900000000000006,0)" xlink:href="#S"/></g><path d="M59-47c-2 24 18 29 38 22v24C64 9 27 4 27-40v-127H5v-23h24l9-43h21v43h35v23H59v120" id="U"/><g id="f"><use transform="matrix(0.05,0,0,0.05,0,0)" xlink:href="#H"/><use transform="matrix(0.05,0,0,0.05,10,0)" xlink:href="#M"/><use transform="matrix(0.05,0,0,0.05,20,0)" xlink:href="#U"/><use transform="matrix(0.05,0,0,0.05,25,0)" xlink:href="#M"/></g><g id="g"><use transform="matrix(0.05,0,0,0.05,0,0)" xlink:href="#U"/><use transform="matrix(0.05,0,0,0.05,5,0)" xlink:href="#G"/></g><path d="M87 75C49 33 22-17 22-94c0-76 28-126 65-167h31c-38 41-64 92-64 168S80 34 118 75H87" id="V"/><path d="M206 0h-36l-40-164L89 0H53L-1-190h32L70-26l43-164h34l41 164 42-164h31" id="W"/><path d="M115-194c53 0 69 39 70 98 0 66-23 100-70 100C84 3 66-7 56-30L54 0H23l1-261h32v101c10-23 28-34 59-34zm-8 174c40 0 45-34 45-75 0-40-5-75-45-74-42 0-51 32-51 76 0 43 10 73 51 73" id="X"/><path d="M143 0L79-87 56-68V0H24v-261h32v163l83-92h37l-77 82L181 0h-38" id="Y"/><path d="M33-261c38 41 65 92 65 168S71 34 33 75H2C39 34 66-17 66-93S39-220 2-261h31" id="Z"/><g id="h"><use transform="matrix(0.03703703703703704,0,0,0.03703703703703704,0,0)" xlink:href="#V"/><use transform="matrix(0.03703703703703704,0,0,0.03703703703703704,4.407407407407408,0)" xlink:href="#W"/><use transform="matrix(0.03703703703703704,0,0,0.03703703703703704,14.000000000000002,0)" xlink:href="#K"/><use transform="matrix(0.03703703703703704,0,0,0.03703703703703704,21.407407407407412,0)" xlink:href="#X"/><use transform="matrix(0.03703703703703704,0,0,0.03703703703703704,28.81481481481482,0)" xlink:href="#S"/><use transform="matrix(0.03703703703703704,0,0,0.03703703703703704,35.48148148148149,0)" xlink:href="#G"/><use transform="matrix(0.03703703703703704,0,0,0.03703703703703704,42.8888888888889,0)" xlink:href="#J"/><use transform="matrix(0.03703703703703704,0,0,0.03703703703703704,49.55555555555557,0)" xlink:href="#Y"/><use transform="matrix(0.03703703703703704,0,0,0.03703703703703704,56.22222222222225,0)" xlink:href="#K"/><use transform="matrix(0.03703703703703704,0,0,0.03703703703703704,63.62962962962965,0)" xlink:href="#U"/><use transform="matrix(0.03703703703703704,0,0,0.03703703703703704,67.33333333333336,0)" xlink:href="#S"/><use transform="matrix(0.03703703703703704,0,0,0.03703703703703704,74.00000000000003,0)" xlink:href="#Z"/></g><path d="M101-234c-31-9-42 10-38 44h38v23H63V0H32v-167H5v-23h27c-7-52 17-82 69-68v24" id="aa"/><path d="M24-231v-30h32v30H24zM24 0v-190h32V0H24" id="ab"/><path d="M33 0v-38h34V0H33" id="ac"/><path d="M24-231v-30h32v30H24zM-9 49c24 4 33-6 33-30v-209h32V24c2 40-23 58-65 49V49" id="ad"/><g id="i"><use transform="matrix(0.05,0,0,0.05,0,0)" xlink:href="#J"/><use transform="matrix(0.05,0,0,0.05,9,0)" xlink:href="#G"/><use transform="matrix(0.05,0,0,0.05,19,0)" xlink:href="#N"/><use transform="matrix(0.05,0,0,0.05,29,0)" xlink:href="#aa"/><use transform="matrix(0.05,0,0,0.05,34,0)" xlink:href="#ab"/><use transform="matrix(0.05,0,0,0.05,37.95,0)" xlink:href="#O"/><use transform="matrix(0.05,0,0,0.05,47.95,0)" xlink:href="#ac"/><use transform="matrix(0.05,0,0,0.05,52.95,0)" xlink:href="#ad"/><use transform="matrix(0.05,0,0,0.05,56.900000000000006,0)" xlink:href="#S"/><use transform="matrix(0.05,0,0,0.05,65.9,0)" xlink:href="#G"/><use transform="matrix(0.05,0,0,0.05,75.9,0)" xlink:href="#N"/></g><path d="M143 4C61 4 22-44 18-125c-5-107 100-154 193-111 17 8 29 25 37 43l-32 9c-13-25-37-40-76-40-61 0-88 39-88 99 0 61 29 100 91 101 35 0 62-11 79-27v-45h-74v-28h105v86C228-13 192 4 143 4" id="ae"/><g id="j"><use transform="matrix(0.05,0,0,0.05,0,0)" xlink:href="#ae"/><use transform="matrix(0.05,0,0,0.05,14,0)" xlink:href="#K"/><use transform="matrix(0.05,0,0,0.05,24,0)" xlink:href="#U"/><use transform="matrix(0.05,0,0,0.05,29,0)" xlink:href="#S"/></g><g id="k"><use transform="matrix(0.05,0,0,0.05,0,0)" xlink:href="#T"/><use transform="matrix(0.05,0,0,0.05,12.950000000000001,0)" xlink:href="#P"/><use transform="matrix(0.05,0,0,0.05,24.950000000000003,0)" xlink:href="#T"/><use transform="matrix(0.05,0,0,0.05,37.900000000000006,0)" xlink:href="#S"/></g><g id="l"><use transform="matrix(0.05,0,0,0.05,0,0)" xlink:href="#H"/><use transform="matrix(0.05,0,0,0.05,10,0)" xlink:href="#M"/><use transform="matrix(0.05,0,0,0.05,20,0)" xlink:href="#U"/><use transform="matrix(0.05,0,0,0.05,25,0)" xlink:href="#M"/></g><path d="M106-169C34-169 62-67 57 0H25v-261h32l-1 103c12-21 28-36 61-36 89 0 53 116 60 194h-32v-121c2-32-8-49-39-48" id="af"/><g id="m"><use transform="matrix(0.05,0,0,0.05,0,0)" xlink:href="#W"/><use transform="matrix(0.05,0,0,0.05,12.950000000000001,0)" xlink:href="#ab"/><use transform="matrix(0.05,0,0,0.05,16.900000000000002,0)" xlink:href="#U"/><use transform="matrix(0.05,0,0,0.05,21.900000000000002,0)" xlink:href="#af"/></g><path d="M24 0v-261h32V0H24" id="ag"/><g id="n"><use transform="matrix(0.05,0,0,0.05,0,0)" xlink:href="#S"/><use transform="matrix(0.05,0,0,0.05,9,0)" xlink:href="#M"/><use transform="matrix(0.05,0,0,0.05,19,0)" xlink:href="#ag"/><use transform="matrix(0.05,0,0,0.05,22.95,0)" xlink:href="#G"/><use transform="matrix(0.05,0,0,0.05,32.95,0)" xlink:href="#X"/><use transform="matrix(0.05,0,0,0.05,42.95,0)" xlink:href="#ad"/></g><path d="M210-169c-67 3-38 105-44 169h-31v-121c0-29-5-50-35-48C34-165 62-65 56 0H25l-1-190h30c1 10-1 24 2 32 10-44 99-50 107 0 11-21 27-35 58-36 85-2 47 119 55 194h-31v-121c0-29-5-49-35-48" id="ah"/><g id="o"><use transform="matrix(0.05,0,0,0.05,0,0)" xlink:href="#aa"/><use transform="matrix(0.05,0,0,0.05,5,0)" xlink:href="#F"/><use transform="matrix(0.05,0,0,0.05,10.95,0)" xlink:href="#G"/><use transform="matrix(0.05,0,0,0.05,20.95,0)" xlink:href="#ah"/></g><g id="p"><use transform="matrix(0.05,0,0,0.05,0,0)" xlink:href="#J"/><use transform="matrix(0.05,0,0,0.05,9,0)" xlink:href="#G"/><use transform="matrix(0.05,0,0,0.05,19,0)" xlink:href="#ah"/><use transform="matrix(0.05,0,0,0.05,33.95,0)" xlink:href="#ah"/><use transform="matrix(0.05,0,0,0.05,48.900000000000006,0)" xlink:href="#M"/><use transform="matrix(0.05,0,0,0.05,58.900000000000006,0)" xlink:href="#N"/><use transform="matrix(0.05,0,0,0.05,68.9,0)" xlink:href="#H"/></g><path d="M115-194c55 1 70 41 70 98S169 2 115 4C84 4 66-9 55-30l1 105H24l-1-265h31l2 30c10-21 28-34 59-34zm-8 174c40 0 45-34 45-75s-6-73-45-74c-42 0-51 32-51 76 0 43 10 73 51 73" id="ai"/><g id="q"><use transform="matrix(0.05,0,0,0.05,0,0)" xlink:href="#ai"/><use transform="matrix(0.05,0,0,0.05,10,0)" xlink:href="#M"/><use transform="matrix(0.05,0,0,0.05,20,0)" xlink:href="#F"/><use transform="matrix(0.05,0,0,0.05,25.950000000000003,0)" xlink:href="#M"/><use transform="matrix(0.05,0,0,0.05,35.95,0)" xlink:href="#ah"/><use transform="matrix(0.05,0,0,0.05,50.900000000000006,0)" xlink:href="#K"/><use transform="matrix(0.05,0,0,0.05,60.900000000000006,0)" xlink:href="#U"/><use transform="matrix(0.05,0,0,0.05,65.9,0)" xlink:href="#K"/><use transform="matrix(0.05,0,0,0.05,75.9,0)" xlink:href="#F"/><use transform="matrix(0.05,0,0,0.05,81.85000000000001,0)" xlink:href="#S"/></g><g id="r"><use transform="matrix(0.05,0,0,0.05,0,0)" xlink:href="#U"/><use transform="matrix(0.05,0,0,0.05,5,0)" xlink:href="#G"/></g><g id="s"><use transform="matrix(0.05,0,0,0.05,0,0)" xlink:href="#J"/><use transform="matrix(0.05,0,0,0.05,9,0)" xlink:href="#G"/><use transform="matrix(0.05,0,0,0.05,19,0)" xlink:href="#ah"/><use transform="matrix(0.05,0,0,0.05,33.95,0)" xlink:href="#ah"/><use transform="matrix(0.05,0,0,0.05,48.900000000000006,0)" xlink:href="#M"/><use transform="matrix(0.05,0,0,0.05,58.900000000000006,0)" xlink:href="#N"/><use transform="matrix(0.05,0,0,0.05,68.9,0)" xlink:href="#H"/></g><g id="t"><use transform="matrix(0.05,0,0,0.05,0,0)" xlink:href="#M"/><use transform="matrix(0.05,0,0,0.05,10,0)" xlink:href="#J"/><use transform="matrix(0.05,0,0,0.05,19,0)" xlink:href="#Y"/><use transform="matrix(0.05,0,0,0.05,28,0)" xlink:href="#N"/><use transform="matrix(0.05,0,0,0.05,38,0)" xlink:href="#G"/><use transform="matrix(0.05,0,0,0.05,48,0)" xlink:href="#W"/><use transform="matrix(0.05,0,0,0.05,60.95,0)" xlink:href="#ag"/><use transform="matrix(0.05,0,0,0.05,64.9,0)" xlink:href="#K"/><use transform="matrix(0.05,0,0,0.05,74.9,0)" xlink:href="#H"/><use transform="matrix(0.05,0,0,0.05,84.9,0)" xlink:href="#O"/><use transform="matrix(0.05,0,0,0.05,94.9,0)" xlink:href="#K"/><use transform="matrix(0.05,0,0,0.05,104.9,0)" xlink:href="#ah"/><use transform="matrix(0.05,0,0,0.05,119.85000000000001,0)" xlink:href="#K"/><use transform="matrix(0.05,0,0,0.05,129.85000000000002,0)" xlink:href="#N"/><use transform="matrix(0.05,0,0,0.05,139.85000000000002,0)" xlink:href="#U"/><use transform="matrix(0.05,0,0,0.05,144.85000000000002,0)" xlink:href="#S"/></g><path d="M30 0v-248h187v28H63v79h144v27H63v87h162V0H30" id="aj"/><path d="M108 0H70L1-190h34L89-25l56-165h34" id="ak"/><g id="u"><use transform="matrix(0.05,0,0,0.05,0,0)" xlink:href="#aj"/><use transform="matrix(0.05,0,0,0.05,12,0)" xlink:href="#N"/><use transform="matrix(0.05,0,0,0.05,22,0)" xlink:href="#ak"/><use transform="matrix(0.05,0,0,0.05,31,0)" xlink:href="#ab"/><use transform="matrix(0.05,0,0,0.05,34.95,0)" xlink:href="#F"/><use transform="matrix(0.05,0,0,0.05,40.900000000000006,0)" xlink:href="#G"/><use transform="matrix(0.05,0,0,0.05,50.900000000000006,0)" xlink:href="#ah"/><use transform="matrix(0.05,0,0,0.05,65.85000000000001,0)" xlink:href="#K"/><use transform="matrix(0.05,0,0,0.05,75.85000000000001,0)" xlink:href="#N"/><use transform="matrix(0.05,0,0,0.05,85.85000000000001,0)" xlink:href="#U"/></g><path d="M137 0h-34L2-248h35l83 218 83-218h36" id="al"/><g id="v"><use transform="matrix(0.05,0,0,0.05,0,0)" xlink:href="#al"/><use transform="matrix(0.05,0,0,0.05,10.65,0)" xlink:href="#M"/><use transform="matrix(0.05,0,0,0.05,20.65,0)" xlink:href="#F"/><use transform="matrix(0.05,0,0,0.05,26.599999999999994,0)" xlink:href="#ab"/><use transform="matrix(0.05,0,0,0.05,30.549999999999997,0)" xlink:href="#M"/><use transform="matrix(0.05,0,0,0.05,40.55,0)" xlink:href="#X"/><use transform="matrix(0.05,0,0,0.05,50.55,0)" xlink:href="#ag"/><use transform="matrix(0.05,0,0,0.05,54.5,0)" xlink:href="#K"/><use transform="matrix(0.05,0,0,0.05,64.5,0)" xlink:href="#S"/></g><g id="w"><use transform="matrix(0.05,0,0,0.05,0,0)" xlink:href="#T"/><use transform="matrix(0.05,0,0,0.05,12.950000000000001,0)" xlink:href="#F"/><use transform="matrix(0.05,0,0,0.05,18.900000000000002,0)" xlink:href="#K"/><use transform="matrix(0.05,0,0,0.05,28.900000000000002,0)" xlink:href="#M"/><use transform="matrix(0.05,0,0,0.05,38.900000000000006,0)" xlink:href="#U"/><use transform="matrix(0.05,0,0,0.05,43.900000000000006,0)" xlink:href="#K"/><use transform="matrix(0.05,0,0,0.05,53.900000000000006,0)" xlink:href="#S"/></g><g id="x"><use transform="matrix(0.05,0,0,0.05,0,0)" xlink:href="#S"/><use transform="matrix(0.05,0,0,0.05,9,0)" xlink:href="#M"/><use transform="matrix(0.05,0,0,0.05,19,0)" xlink:href="#ag"/><use transform="matrix(0.05,0,0,0.05,22.95,0)" xlink:href="#G"/><use transform="matrix(0.05,0,0,0.05,32.95,0)" xlink:href="#X"/><use transform="matrix(0.05,0,0,0.05,42.95,0)" xlink:href="#ad"/></g><path d="M233-177c-1 41-23 64-60 70L243 0h-38l-65-103H63V0H30v-248c88 3 205-21 203 71zM63-129c60-2 137 13 137-47 0-61-80-42-137-45v92" id="am"/><g id="y"><use transform="matrix(0.05,0,0,0.05,0,0)" xlink:href="#am"/><use transform="matrix(0.05,0,0,0.05,12.950000000000001,0)" xlink:href="#K"/><use transform="matrix(0.05,0,0,0.05,22.950000000000003,0)" xlink:href="#ah"/><use transform="matrix(0.05,0,0,0.05,37.900000000000006,0)" xlink:href="#G"/><use transform="matrix(0.05,0,0,0.05,47.900000000000006,0)" xlink:href="#U"/><use transform="matrix(0.05,0,0,0.05,52.900000000000006,0)" xlink:href="#K"/><use transform="matrix(0.05,0,0,0.05,62.900000000000006,0)" xlink:href="#S"/></g><g id="z"><use transform="matrix(0.05,0,0,0.05,0,0)" xlink:href="#M"/><use transform="matrix(0.05,0,0,0.05,10,0)" xlink:href="#J"/><use transform="matrix(0.05,0,0,0.05,19,0)" xlink:href="#J"/><use transform="matrix(0.05,0,0,0.05,28,0)" xlink:href="#G"/><use transform="matrix(0.05,0,0,0.05,38,0)" xlink:href="#F"/><use transform="matrix(0.05,0,0,0.05,43.95,0)" xlink:href="#H"/><use transform="matrix(0.05,0,0,0.05,53.95,0)" xlink:href="#ab"/><use transform="matrix(0.05,0,0,0.05,57.900000000000006,0)" xlink:href="#N"/><use transform="matrix(0.05,0,0,0.05,67.9,0)" xlink:href="#O"/></g><g id="A"><use transform="matrix(0.05,0,0,0.05,0,0)" xlink:href="#U"/><use transform="matrix(0.05,0,0,0.05,5,0)" xlink:href="#G"/></g><g id="B"><use transform="matrix(0.05,0,0,0.05,0,0)" xlink:href="#T"/><use transform="matrix(0.05,0,0,0.05,12.950000000000001,0)" xlink:href="#G"/><use transform="matrix(0.05,0,0,0.05,22.950000000000003,0)" xlink:href="#N"/><use transform="matrix(0.05,0,0,0.05,32.95,0)" xlink:href="#aa"/><use transform="matrix(0.05,0,0,0.05,37.95,0)" xlink:href="#ab"/><use transform="matrix(0.05,0,0,0.05,41.900000000000006,0)" xlink:href="#O"/><use transform="matrix(0.05,0,0,0.05,51.900000000000006,0)" xlink:href="#I"/><use transform="matrix(0.05,0,0,0.05,61.900000000000006,0)" xlink:href="#F"/><use transform="matrix(0.05,0,0,0.05,67.85000000000001,0)" xlink:href="#K"/><use transform="matrix(0.05,0,0,0.05,77.85000000000001,0)" xlink:href="#S"/></g><g id="C"><use transform="matrix(0.05,0,0,0.05,0,0)" xlink:href="#J"/><use transform="matrix(0.05,0,0,0.05,9,0)" xlink:href="#G"/><use transform="matrix(0.05,0,0,0.05,19,0)" xlink:href="#ah"/><use transform="matrix(0.05,0,0,0.05,33.95,0)" xlink:href="#ah"/><use transform="matrix(0.05,0,0,0.05,48.900000000000006,0)" xlink:href="#I"/><use transform="matrix(0.05,0,0,0.05,58.900000000000006,0)" xlink:href="#N"/><use transform="matrix(0.05,0,0,0.05,68.9,0)" xlink:href="#ab"/><use transform="matrix(0.05,0,0,0.05,72.85000000000001,0)" xlink:href="#J"/><use transform="matrix(0.05,0,0,0.05,81.85000000000001,0)" xlink:href="#M"/><use transform="matrix(0.05,0,0,0.05,91.85000000000001,0)" xlink:href="#U"/><use transform="matrix(0.05,0,0,0.05,96.85000000000001,0)" xlink:href="#ab"/><use transform="matrix(0.05,0,0,0.05,100.80000000000001,0)" xlink:href="#G"/><use transform="matrix(0.05,0,0,0.05,110.80000000000001,0)" xlink:href="#N"/><use transform="matrix(0.05,0,0,0.05,120.80000000000001,0)" xlink:href="#S"/></g><g id="D"><use transform="matrix(0.05,0,0,0.05,0,0)" xlink:href="#I"/><use transform="matrix(0.05,0,0,0.05,10,0)" xlink:href="#S"/><use transform="matrix(0.05,0,0,0.05,19,0)" xlink:href="#ab"/><use transform="matrix(0.05,0,0,0.05,22.95,0)" xlink:href="#N"/><use transform="matrix(0.05,0,0,0.05,32.95,0)" xlink:href="#O"/></g></defs></g></svg>